<svg id="svg" version="1.1" xmlns="http://www.w3.org/2000/svg" xmlns:xlink="http://www.w3.org/1999/xlink" width="400" height="160" viewBox="0, 0, 400,160"><g id="svgg"><path id="path0" d="M201.333 99.167 L 201.333 138.167 218.490 138.167 C 229.748 138.167,235.682 138.109,235.750 138.000 C 235.807 137.908,236.434 137.833,237.145 137.833 C 238.022 137.833,238.540 137.755,238.760 137.589 C 238.938 137.454,239.402 137.342,239.792 137.339 C 240.181 137.336,240.500 137.258,240.500 137.167 C 240.500 137.075,240.758 137.000,241.073 137.000 C 241.389 137.000,241.693 136.925,241.750 136.833 C 241.807 136.742,242.001 136.667,242.182 136.667 C 242.363 136.667,242.554 136.554,242.606 136.417 C 242.659 136.279,242.844 136.167,243.018 136.167 C 243.191 136.167,243.333 136.092,243.333 136.000 C 243.333 135.908,243.438 135.833,243.566 135.833 C 243.693 135.833,243.841 135.721,243.894 135.583 C 243.946 135.446,244.104 135.333,244.245 135.333 C 244.385 135.333,244.500 135.258,244.500 135.167 C 244.500 135.075,244.612 135.000,244.750 135.000 C 244.887 135.000,245.000 134.933,245.000 134.851 C 245.000 134.769,245.186 134.525,245.414 134.309 C 245.641 134.093,245.829 133.823,245.830 133.708 C 245.832 133.594,245.908 133.500,246.000 133.500 C 246.092 133.500,246.167 133.387,246.167 133.250 C 246.167 133.112,246.240 133.000,246.330 133.000 C 246.420 133.000,246.541 132.813,246.598 132.583 C 246.656 132.354,246.770 132.167,246.851 132.167 C 246.933 132.167,247.000 131.979,247.000 131.750 C 247.000 131.521,247.075 131.333,247.167 131.333 C 247.258 131.333,247.333 131.154,247.333 130.934 C 247.333 130.715,247.446 130.492,247.583 130.440 C 247.739 130.380,247.833 130.126,247.833 129.765 C 247.833 129.447,247.908 129.140,248.000 129.083 C 248.092 129.027,248.169 128.591,248.172 128.115 C 248.175 127.620,248.282 127.112,248.422 126.926 C 248.593 126.700,248.667 126.172,248.667 125.168 C 248.667 124.379,248.743 123.657,248.837 123.563 C 249.269 123.131,248.823 106.357,248.375 106.208 C 248.242 106.164,248.167 105.810,248.167 105.236 C 248.167 104.740,248.092 104.333,248.000 104.333 C 247.908 104.333,247.833 104.118,247.833 103.854 C 247.833 103.590,247.721 103.281,247.583 103.167 C 247.446 103.053,247.333 102.781,247.333 102.563 C 247.333 102.345,247.258 102.167,247.167 102.167 C 247.075 102.167,247.000 102.060,247.000 101.930 C 247.000 101.633,246.459 100.669,246.292 100.668 C 246.223 100.667,246.167 100.586,246.167 100.488 C 246.167 100.257,245.743 99.833,245.512 99.833 C 245.414 99.833,245.333 99.748,245.333 99.644 C 245.333 99.445,244.505 98.667,244.292 98.667 C 244.223 98.667,244.167 98.554,244.167 98.417 C 244.167 98.261,244.009 98.167,243.750 98.167 C 243.521 98.167,243.333 98.103,243.333 98.026 C 243.333 97.949,243.071 97.744,242.750 97.572 C 242.429 97.399,242.167 97.200,242.167 97.129 C 242.167 97.058,241.984 97.000,241.760 97.000 C 241.536 97.000,241.307 96.925,241.250 96.833 C 241.193 96.742,240.926 96.667,240.657 96.667 C 240.332 96.667,240.167 96.582,240.167 96.417 C 240.167 96.244,239.993 96.167,239.601 96.167 C 239.042 96.167,238.814 95.946,238.955 95.542 C 238.995 95.427,239.284 95.333,239.597 95.333 C 239.910 95.333,240.167 95.258,240.167 95.167 C 240.167 95.075,240.429 95.000,240.750 95.000 C 241.071 95.000,241.333 94.925,241.333 94.833 C 241.333 94.742,241.486 94.667,241.672 94.667 C 241.858 94.667,242.054 94.554,242.106 94.417 C 242.159 94.279,242.348 94.167,242.525 94.167 C 242.703 94.167,243.050 93.979,243.297 93.750 C 243.544 93.521,243.815 93.333,243.898 93.333 C 244.146 93.333,245.833 91.514,245.833 91.246 C 245.833 91.111,245.908 91.000,246.000 91.000 C 246.092 91.000,246.167 90.845,246.167 90.655 C 246.167 90.465,246.279 90.197,246.417 90.060 C 246.554 89.922,246.667 89.632,246.667 89.415 C 246.667 89.197,246.742 88.973,246.833 88.917 C 246.925 88.860,247.000 88.410,247.000 87.917 C 247.000 87.423,247.075 86.973,247.167 86.917 C 247.272 86.852,247.333 84.943,247.333 81.740 C 247.333 78.469,247.274 76.667,247.167 76.667 C 247.070 76.667,247.000 76.114,247.000 75.343 C 247.000 74.615,246.925 73.973,246.833 73.917 C 246.742 73.860,246.667 73.523,246.667 73.169 C 246.667 72.814,246.554 72.411,246.417 72.274 C 246.279 72.136,246.167 71.760,246.167 71.438 C 246.167 71.116,246.092 70.807,246.000 70.750 C 245.908 70.693,245.833 70.464,245.833 70.240 C 245.833 69.990,245.737 69.833,245.583 69.833 C 245.434 69.833,245.333 69.680,245.333 69.450 C 245.333 69.011,244.978 68.170,244.792 68.168 C 244.723 68.167,244.667 68.060,244.667 67.929 C 244.667 67.798,244.573 67.591,244.458 67.470 C 244.344 67.349,244.029 66.950,243.760 66.583 C 243.229 65.862,241.254 63.833,241.082 63.833 C 241.024 63.833,240.872 63.740,240.744 63.625 C 240.191 63.130,240.004 63.000,239.838 63.000 C 239.627 63.000,239.018 62.665,238.703 62.375 C 238.578 62.260,238.332 62.167,238.155 62.167 C 237.978 62.167,237.833 62.092,237.833 62.000 C 237.833 61.908,237.640 61.833,237.405 61.833 C 237.169 61.833,236.864 61.721,236.726 61.583 C 236.589 61.446,236.219 61.333,235.905 61.333 C 235.590 61.333,235.333 61.258,235.333 61.167 C 235.333 61.074,234.889 61.000,234.333 61.000 C 233.778 61.000,233.333 60.926,233.333 60.833 C 233.333 60.735,232.756 60.667,231.934 60.667 C 230.845 60.667,230.514 60.611,230.440 60.417 C 230.355 60.197,228.578 60.167,215.839 60.167 L 201.333 60.167 201.333 99.167 M225.500 74.322 C 225.500 74.408,225.662 74.529,225.861 74.592 C 226.404 74.764,226.931 75.365,227.182 76.096 C 227.305 76.456,227.502 76.898,227.619 77.079 C 227.959 77.601,227.926 87.216,227.583 87.500 C 227.445 87.615,227.333 87.979,227.333 88.317 C 227.333 88.735,227.229 89.002,227.000 89.167 C 226.817 89.299,226.667 89.503,226.667 89.620 C 226.667 89.737,226.521 89.833,226.343 89.833 C 226.165 89.833,225.973 89.908,225.917 90.000 C 225.858 90.095,225.026 90.167,223.990 90.167 L 222.167 90.167 222.167 82.167 L 222.167 74.167 223.833 74.167 C 224.753 74.167,225.500 74.236,225.500 74.322 M54.874 81.193 C 54.760 81.307,54.667 81.535,54.667 81.700 C 54.667 81.865,54.597 82.000,54.511 82.000 C 54.426 82.000,54.308 82.151,54.249 82.336 C 54.191 82.520,54.073 82.628,53.988 82.576 C 53.903 82.523,53.833 82.602,53.833 82.750 C 53.833 83.080,53.114 84.391,52.673 84.864 C 52.496 85.055,52.305 85.416,52.250 85.667 C 52.195 85.917,52.004 86.279,51.825 86.471 C 51.646 86.662,51.500 86.927,51.500 87.059 C 51.500 87.191,51.314 87.475,51.086 87.691 C 50.859 87.907,50.671 88.255,50.670 88.466 C 50.668 88.676,50.479 89.050,50.250 89.297 C 50.021 89.544,49.833 89.822,49.833 89.915 C 49.833 90.008,49.646 90.301,49.416 90.568 C 49.187 90.834,49.000 91.228,49.000 91.443 C 49.000 91.657,48.925 91.833,48.833 91.833 C 48.742 91.833,48.667 91.938,48.667 92.066 C 48.667 92.193,48.554 92.341,48.417 92.394 C 48.279 92.446,48.167 92.633,48.167 92.808 C 48.167 92.983,48.049 93.224,47.904 93.343 C 47.617 93.582,47.000 94.713,47.000 95.002 C 47.000 95.101,46.737 95.453,46.417 95.784 C 46.096 96.114,45.833 96.528,45.833 96.704 C 45.833 96.880,45.740 97.128,45.625 97.256 C 45.105 97.836,45.000 98.003,45.000 98.251 C 45.000 98.396,44.813 98.703,44.583 98.932 C 44.354 99.161,44.167 99.533,44.167 99.758 C 44.167 99.983,44.092 100.167,44.000 100.167 C 43.908 100.167,43.833 100.279,43.833 100.417 C 43.833 100.554,43.758 100.667,43.667 100.667 C 43.575 100.667,43.500 100.776,43.500 100.909 C 43.500 101.042,43.313 101.339,43.083 101.568 C 42.821 101.830,42.667 102.173,42.667 102.492 C 42.667 102.812,42.582 103.000,42.437 103.000 C 42.148 103.000,41.882 103.317,41.808 103.750 C 41.776 103.933,41.581 104.270,41.375 104.498 C 41.169 104.727,41.000 105.120,41.000 105.373 C 41.000 105.692,40.914 105.833,40.722 105.833 C 40.569 105.833,40.487 105.875,40.538 105.927 C 40.590 105.978,40.452 106.214,40.233 106.451 C 40.013 106.688,39.833 107.021,39.833 107.191 C 39.833 107.361,39.766 107.500,39.685 107.500 C 39.603 107.500,39.486 107.702,39.424 107.948 C 39.298 108.449,38.716 109.346,38.383 109.550 C 38.264 109.623,38.167 109.830,38.167 110.008 C 38.167 110.187,38.092 110.333,38.000 110.333 C 37.908 110.333,37.833 110.454,37.833 110.601 C 37.833 110.748,37.646 111.091,37.417 111.364 C 36.932 111.939,36.769 115.767,37.208 116.256 C 37.728 116.836,37.833 117.003,37.833 117.251 C 37.833 117.619,38.307 118.500,38.504 118.500 C 38.594 118.500,38.667 118.636,38.667 118.802 C 38.667 118.968,38.833 119.282,39.036 119.501 C 39.240 119.719,39.429 120.050,39.458 120.237 C 39.486 120.423,39.582 120.649,39.671 120.738 C 39.760 120.827,39.833 121.019,39.833 121.165 C 39.833 121.311,40.096 121.709,40.417 122.049 C 40.756 122.409,41.000 122.838,41.000 123.075 C 41.000 123.300,41.094 123.543,41.209 123.617 C 41.454 123.774,41.794 124.444,41.868 124.917 C 41.899 125.114,42.072 125.272,42.293 125.303 C 42.567 125.342,42.667 125.468,42.667 125.778 C 42.667 126.009,42.835 126.435,43.041 126.724 C 43.248 127.013,43.416 127.300,43.416 127.362 C 43.417 127.423,43.585 127.667,43.792 127.905 C 43.998 128.142,44.167 128.474,44.167 128.642 C 44.167 128.810,44.354 129.166,44.583 129.432 C 44.812 129.699,45.000 130.048,45.000 130.208 C 45.000 130.369,45.075 130.500,45.167 130.500 C 45.258 130.500,45.333 130.588,45.333 130.695 C 45.333 130.803,45.439 131.009,45.568 131.154 C 45.697 131.298,45.828 131.604,45.860 131.833 C 45.891 132.063,46.160 132.512,46.457 132.833 C 46.754 133.154,46.998 133.504,46.999 133.611 C 47.001 133.891,47.536 134.867,47.851 135.164 C 47.998 135.303,48.172 135.585,48.237 135.792 C 48.303 135.998,48.426 136.167,48.511 136.167 C 48.597 136.167,48.667 136.312,48.667 136.490 C 48.667 136.668,48.742 136.860,48.833 136.917 C 48.925 136.973,49.000 137.154,49.000 137.317 C 49.000 137.481,49.187 137.833,49.416 138.099 L 49.832 138.583 79.908 138.583 C 100.117 138.583,110.039 138.528,110.153 138.413 C 110.362 138.205,109.879 137.121,108.613 134.958 C 108.117 134.110,107.345 132.781,106.897 132.003 C 105.934 130.331,105.915 130.298,105.173 129.052 C 104.855 128.519,104.513 127.933,104.411 127.750 C 104.198 127.367,101.772 123.166,101.331 122.417 C 101.169 122.142,100.281 120.584,99.359 118.956 C 98.437 117.328,97.567 115.830,97.425 115.627 C 97.283 115.425,97.167 115.129,97.167 114.971 C 97.167 114.401,96.789 113.829,96.431 113.857 C 94.036 114.050,64.167 113.796,64.167 113.583 C 64.167 113.446,64.223 113.333,64.292 113.332 C 64.436 113.331,65.000 112.386,65.000 112.146 C 65.000 112.058,65.188 111.783,65.417 111.536 C 65.646 111.289,65.833 110.995,65.833 110.882 C 65.833 110.579,66.472 109.479,66.932 108.991 C 67.153 108.757,67.333 108.400,67.333 108.199 C 67.333 107.998,67.403 107.833,67.488 107.833 C 67.687 107.833,68.167 106.874,68.167 106.474 C 68.167 106.305,68.272 106.167,68.400 106.167 C 68.663 106.167,69.347 105.100,69.381 104.636 C 69.394 104.469,69.463 104.333,69.535 104.333 C 69.826 104.333,69.658 103.331,69.333 103.128 C 69.150 103.013,69.000 102.781,69.000 102.611 C 69.000 102.442,68.737 101.996,68.417 101.621 C 68.096 101.247,67.833 100.812,67.833 100.654 C 67.833 100.497,67.721 100.326,67.583 100.273 C 67.446 100.220,67.333 100.005,67.333 99.795 C 67.333 99.585,67.162 99.227,66.952 98.998 C 66.742 98.770,66.471 98.340,66.348 98.042 C 66.226 97.744,66.060 97.500,65.980 97.500 C 65.899 97.500,65.833 97.356,65.833 97.179 C 65.833 97.003,65.665 96.647,65.458 96.388 C 65.252 96.129,64.940 95.635,64.765 95.292 C 64.591 94.948,64.384 94.667,64.307 94.667 C 64.230 94.667,64.167 94.440,64.167 94.163 C 64.167 93.788,64.061 93.611,63.750 93.470 C 63.521 93.365,63.333 93.157,63.333 93.006 C 63.333 92.664,62.956 91.836,62.799 91.835 C 62.735 91.834,62.558 91.571,62.405 91.250 C 62.253 90.929,62.062 90.667,61.981 90.667 C 61.900 90.667,61.833 90.521,61.833 90.343 C 61.833 90.165,61.759 89.973,61.667 89.917 C 61.576 89.861,61.313 89.404,61.084 88.902 C 60.854 88.400,60.554 87.946,60.417 87.894 C 60.279 87.841,60.167 87.652,60.167 87.474 C 60.167 87.023,59.762 86.297,59.347 86.005 C 59.156 85.870,59.000 85.589,59.000 85.380 C 59.000 85.171,58.926 85.000,58.837 85.000 C 58.747 85.000,58.626 84.813,58.568 84.583 C 58.511 84.354,58.397 84.167,58.315 84.167 C 58.234 84.167,58.167 84.017,58.167 83.833 C 58.167 83.650,58.092 83.500,58.000 83.500 C 57.908 83.500,57.833 83.393,57.833 83.262 C 57.833 83.131,57.740 82.925,57.625 82.804 C 57.510 82.682,57.314 82.358,57.189 82.083 C 57.064 81.808,56.906 81.471,56.839 81.333 C 56.680 81.010,55.165 80.902,54.874 81.193 M225.273 103.583 C 225.326 103.721,225.534 103.833,225.735 103.833 C 226.241 103.833,226.997 104.207,226.999 104.458 C 226.999 104.573,227.075 104.667,227.167 104.667 C 227.258 104.667,227.333 104.877,227.333 105.135 C 227.333 105.392,227.443 105.749,227.578 105.926 C 227.785 106.200,227.823 107.403,227.823 113.667 C 227.823 119.930,227.785 121.134,227.578 121.407 C 227.443 121.585,227.333 121.891,227.333 122.088 C 227.333 122.658,226.110 123.833,225.517 123.833 C 225.243 123.833,224.973 123.908,224.917 124.000 C 224.860 124.092,224.218 124.167,223.490 124.167 L 222.167 124.167 222.167 113.750 L 222.167 103.333 223.672 103.333 C 224.856 103.333,225.198 103.387,225.273 103.583 " stroke="none" fill="#eb0c8b" fill-rule="evenodd"></path><path id="path1" d="M133.305 52.840 C 133.355 53.357,133.269 53.666,132.935 54.173 C 132.696 54.536,132.325 55.115,132.112 55.458 C 131.899 55.802,131.532 56.383,131.297 56.750 C 131.061 57.117,130.420 58.167,129.871 59.083 C 129.322 60.000,128.479 61.387,127.997 62.167 C 127.516 62.946,127.001 63.782,126.853 64.026 C 126.354 64.846,124.455 67.912,124.082 68.500 C 123.878 68.821,123.165 69.983,122.496 71.083 C 121.043 73.476,120.553 74.263,120.129 74.884 C 119.814 75.345,119.433 77.061,119.679 76.909 C 119.878 76.786,120.333 77.322,120.333 77.680 C 120.333 77.858,120.558 78.238,120.833 78.526 C 121.108 78.814,121.339 79.095,121.346 79.150 C 121.405 79.615,121.504 79.904,121.655 80.055 C 121.753 80.153,121.833 80.352,121.833 80.497 C 121.833 80.641,122.096 81.008,122.417 81.310 C 122.737 81.613,123.000 82.024,123.000 82.224 C 123.000 82.423,123.182 82.783,123.404 83.023 C 123.698 83.340,123.758 83.508,123.625 83.642 C 123.388 83.879,123.920 84.500,124.359 84.500 C 124.576 84.500,124.667 84.623,124.667 84.917 C 124.667 85.146,124.742 85.333,124.833 85.333 C 124.925 85.333,125.000 85.480,125.000 85.659 C 125.000 85.838,125.263 86.239,125.583 86.550 C 126.007 86.962,126.167 87.261,126.167 87.642 C 126.167 87.997,126.247 88.167,126.417 88.167 C 126.554 88.167,126.667 88.303,126.667 88.469 C 126.667 88.635,126.835 88.951,127.042 89.172 C 127.519 89.683,127.833 90.284,127.833 90.686 C 127.833 90.859,127.950 91.000,128.093 91.000 C 128.236 91.000,128.307 91.075,128.250 91.167 C 128.193 91.258,128.264 91.333,128.407 91.333 C 128.593 91.333,128.667 91.499,128.667 91.917 C 128.667 92.313,128.743 92.500,128.907 92.500 C 129.209 92.500,129.294 92.640,129.417 93.333 C 129.539 94.027,129.624 94.167,129.927 94.167 C 130.130 94.167,130.242 94.453,130.194 94.853 C 130.187 94.909,130.366 95.129,130.591 95.340 C 130.816 95.552,131.000 95.867,131.000 96.040 C 131.000 96.499,131.307 97.000,131.589 97.000 C 131.738 97.000,131.833 97.162,131.833 97.417 C 131.833 97.646,131.908 97.833,132.000 97.833 C 132.092 97.833,132.167 97.948,132.167 98.089 C 132.167 98.229,132.279 98.387,132.417 98.440 C 132.554 98.492,132.667 98.683,132.667 98.863 C 132.667 99.197,133.028 99.667,133.286 99.667 C 133.365 99.667,133.441 99.829,133.456 100.027 C 133.471 100.225,133.548 100.431,133.626 100.485 C 133.784 100.594,134.245 101.654,134.248 101.917 C 134.249 102.008,134.419 102.107,134.625 102.137 C 134.912 102.177,135.000 102.299,135.000 102.658 C 135.000 102.915,135.112 103.219,135.250 103.333 C 135.387 103.447,135.500 103.682,135.500 103.854 C 135.500 104.026,135.575 104.167,135.667 104.167 C 135.758 104.167,135.833 104.336,135.833 104.544 C 135.833 104.775,135.978 104.985,136.208 105.085 C 136.420 105.178,136.609 105.431,136.642 105.667 C 136.674 105.896,136.753 106.121,136.818 106.167 C 137.086 106.356,137.500 107.096,137.500 107.385 C 137.500 107.557,137.649 107.821,137.832 107.973 C 138.015 108.125,138.188 108.417,138.217 108.622 C 138.246 108.827,138.427 109.164,138.620 109.372 C 138.813 109.580,138.996 109.899,139.027 110.081 C 139.058 110.263,139.268 110.586,139.493 110.799 C 139.844 111.130,139.873 111.232,139.695 111.516 C 139.433 111.937,139.603 112.260,139.940 111.981 C 140.139 111.815,140.201 111.844,140.278 112.139 C 140.330 112.338,140.438 112.500,140.519 112.500 C 140.600 112.500,140.667 112.612,140.667 112.750 C 140.667 112.888,140.730 113.000,140.807 113.000 C 140.884 113.000,141.032 113.188,141.136 113.417 C 141.241 113.646,141.434 113.833,141.566 113.833 C 141.698 113.833,141.831 113.890,141.862 113.958 C 141.893 114.027,142.130 114.271,142.389 114.500 L 142.860 114.917 156.513 115.000 C 171.557 115.092,170.723 115.149,169.750 114.099 C 169.521 113.852,169.333 113.459,169.333 113.226 C 169.333 112.942,169.223 112.773,168.998 112.714 C 168.814 112.666,168.618 112.448,168.563 112.230 C 168.509 112.012,168.397 111.833,168.315 111.833 C 168.234 111.833,168.167 111.688,168.167 111.510 C 168.167 111.332,168.092 111.140,168.000 111.083 C 167.908 111.027,167.833 110.833,167.833 110.653 C 167.833 110.466,167.655 110.245,167.417 110.136 C 167.115 109.999,167.000 109.816,167.000 109.473 C 167.000 109.156,166.914 109.000,166.740 109.000 C 166.597 109.000,166.523 108.931,166.575 108.847 C 166.627 108.762,166.557 108.580,166.418 108.442 C 166.280 108.304,166.167 108.071,166.167 107.924 C 166.167 107.778,165.979 107.587,165.750 107.500 C 165.444 107.384,165.333 107.219,165.333 106.879 C 165.333 106.625,165.146 106.199,164.916 105.932 C 164.687 105.666,164.500 105.364,164.500 105.261 C 164.500 105.158,164.350 104.965,164.167 104.833 C 163.969 104.691,163.833 104.402,163.833 104.125 C 163.833 103.862,163.724 103.614,163.583 103.560 C 163.446 103.508,163.333 103.376,163.333 103.269 C 163.333 103.162,163.183 102.965,163.000 102.833 C 162.817 102.701,162.667 102.431,162.667 102.234 C 162.667 102.036,162.554 101.781,162.417 101.667 C 162.279 101.553,162.167 101.329,162.167 101.171 C 162.167 101.012,161.979 100.680,161.750 100.432 C 161.521 100.185,161.333 99.874,161.333 99.741 C 161.333 99.609,161.258 99.500,161.167 99.500 C 161.075 99.500,161.000 99.394,161.000 99.264 C 161.000 98.985,160.473 97.942,160.292 97.861 C 160.223 97.831,160.167 97.670,160.167 97.505 C 160.167 97.340,159.979 97.082,159.750 96.932 C 159.521 96.782,159.333 96.511,159.333 96.329 C 159.333 96.148,159.258 96.000,159.167 96.000 C 159.075 96.000,159.000 95.810,159.000 95.578 C 159.000 95.346,158.887 95.113,158.750 95.060 C 158.612 95.008,158.500 94.830,158.500 94.667 C 158.500 94.503,158.386 94.325,158.247 94.272 C 158.109 94.219,157.923 93.986,157.835 93.754 C 157.747 93.523,157.598 93.333,157.504 93.333 C 157.410 93.333,157.331 93.127,157.328 92.875 C 157.323 92.428,156.999 91.833,156.761 91.833 C 156.519 91.833,156.167 91.346,156.167 91.012 C 156.167 90.822,156.092 90.667,156.000 90.667 C 155.774 90.667,155.788 89.779,156.017 89.550 C 156.244 89.323,156.043 88.623,155.778 88.716 C 155.671 88.753,155.589 88.945,155.597 89.142 C 155.614 89.618,155.440 89.595,155.167 89.083 C 155.044 88.854,154.881 88.667,154.805 88.667 C 154.729 88.667,154.667 88.514,154.667 88.328 C 154.667 88.142,154.554 87.946,154.417 87.894 C 154.271 87.838,154.167 87.588,154.167 87.294 C 154.167 86.933,154.000 86.632,153.583 86.239 C 153.262 85.937,153.000 85.542,153.000 85.362 C 153.000 85.183,152.905 84.999,152.788 84.954 C 152.671 84.910,152.559 84.667,152.538 84.414 C 152.517 84.162,152.350 83.826,152.167 83.667 C 151.983 83.508,151.833 83.293,151.833 83.189 C 151.833 83.085,151.721 83.000,151.583 83.000 C 151.432 83.000,151.333 82.845,151.333 82.609 C 151.333 82.043,150.838 81.137,150.477 81.042 C 150.306 80.998,150.167 80.819,150.167 80.645 C 150.167 80.271,149.836 79.638,149.542 79.450 C 149.427 79.377,149.333 79.088,149.333 78.809 C 149.333 78.445,149.241 78.278,149.006 78.216 C 148.825 78.169,148.633 77.989,148.578 77.815 C 148.523 77.642,148.408 77.500,148.322 77.500 C 148.237 77.500,148.167 77.313,148.167 77.083 C 148.167 76.854,148.092 76.667,148.000 76.667 C 147.908 76.667,147.833 76.512,147.833 76.322 C 147.833 76.033,147.167 74.950,146.815 74.667 C 146.758 74.621,146.659 74.415,146.595 74.208 C 146.530 74.002,146.408 73.833,146.322 73.833 C 146.237 73.833,146.167 73.619,146.167 73.357 C 146.167 73.043,146.024 72.773,145.750 72.567 C 145.521 72.395,145.333 72.160,145.333 72.044 C 145.333 71.928,145.258 71.833,145.167 71.833 C 145.075 71.833,145.000 71.678,145.000 71.488 C 145.000 71.298,144.906 71.038,144.792 70.911 C 144.279 70.339,144.167 70.166,144.167 69.948 C 144.167 69.820,143.979 69.513,143.750 69.266 C 143.521 69.018,143.333 68.722,143.333 68.606 C 143.333 68.491,143.200 68.251,143.037 68.073 C 142.874 67.895,142.768 67.613,142.801 67.447 C 142.841 67.249,142.741 67.111,142.514 67.052 C 142.285 66.992,142.167 66.826,142.167 66.564 C 142.167 66.345,142.092 66.167,142.000 66.167 C 141.908 66.167,141.833 66.051,141.833 65.909 C 141.833 65.767,141.646 65.477,141.417 65.265 C 141.188 65.052,141.000 64.805,141.000 64.715 C 141.000 64.476,140.505 63.523,140.323 63.410 C 140.237 63.357,140.167 63.195,140.167 63.051 C 140.167 62.906,139.979 62.614,139.750 62.402 C 139.521 62.190,139.333 61.946,139.333 61.860 C 139.333 61.705,139.059 61.141,138.754 60.667 C 138.665 60.529,138.578 60.318,138.560 60.198 C 138.541 60.077,138.370 59.843,138.180 59.678 C 137.989 59.513,137.833 59.218,137.833 59.022 C 137.833 58.817,137.727 58.667,137.583 58.667 C 137.428 58.667,137.333 58.509,137.333 58.250 C 137.333 58.021,137.258 57.833,137.167 57.833 C 137.075 57.833,137.000 57.646,137.000 57.417 C 137.000 57.188,136.920 57.000,136.821 57.000 C 136.510 57.000,136.167 56.538,136.167 56.120 C 136.167 55.897,135.979 55.513,135.750 55.266 C 135.521 55.018,135.333 54.719,135.333 54.601 C 135.333 54.482,135.183 54.249,135.000 54.083 C 134.817 53.917,134.667 53.673,134.667 53.541 C 134.667 53.282,133.629 52.167,133.387 52.167 C 133.307 52.167,133.270 52.470,133.305 52.840 M255.833 99.167 L 255.833 138.167 266.250 138.167 L 276.667 138.167 276.667 120.750 L 276.667 103.333 278.083 103.333 C 279.114 103.333,279.489 103.389,279.458 103.538 C 279.435 103.650,279.585 103.768,279.792 103.799 C 279.998 103.831,280.167 103.926,280.167 104.012 C 280.167 104.097,280.267 104.167,280.390 104.167 C 280.711 104.167,281.351 105.497,281.394 106.252 C 281.413 106.605,281.521 106.924,281.632 106.961 C 281.788 107.013,281.833 110.558,281.833 122.597 L 281.833 138.167 291.583 138.167 L 301.333 138.167 301.333 123.250 C 301.333 113.417,301.277 108.333,301.167 108.333 C 301.068 108.333,301.000 107.722,301.000 106.833 C 301.000 105.944,300.932 105.333,300.833 105.333 C 300.742 105.333,300.667 105.106,300.667 104.828 C 300.667 104.533,300.563 104.283,300.417 104.227 C 300.279 104.174,300.167 103.947,300.167 103.722 C 300.167 103.492,300.094 103.359,300.000 103.417 C 299.905 103.475,299.833 103.335,299.833 103.093 C 299.833 102.825,299.740 102.667,299.583 102.667 C 299.446 102.667,299.333 102.554,299.333 102.417 C 299.333 102.279,299.258 102.167,299.167 102.167 C 299.075 102.167,299.000 102.044,299.000 101.895 C 299.000 101.745,298.737 101.375,298.417 101.073 C 298.096 100.770,297.833 100.442,297.833 100.345 C 297.833 100.247,297.721 100.167,297.583 100.167 C 297.446 100.167,297.333 100.103,297.333 100.026 C 297.333 99.949,297.071 99.744,296.750 99.572 C 296.429 99.399,296.167 99.200,296.167 99.129 C 296.167 99.058,295.979 99.000,295.750 99.000 C 295.521 99.000,295.333 98.925,295.333 98.833 C 295.333 98.742,295.191 98.667,295.018 98.667 C 294.844 98.667,294.659 98.554,294.606 98.417 C 294.554 98.279,294.363 98.167,294.182 98.167 C 294.001 98.167,293.807 98.092,293.750 98.000 C 293.693 97.908,293.436 97.833,293.177 97.833 C 292.919 97.833,292.614 97.721,292.500 97.583 C 292.323 97.370,292.369 97.333,292.813 97.333 C 293.099 97.333,293.333 97.258,293.333 97.167 C 293.333 97.075,293.577 96.999,293.875 96.997 C 294.543 96.994,295.717 96.600,295.800 96.351 C 295.833 96.250,296.000 96.167,296.171 96.167 C 296.341 96.167,296.527 96.092,296.583 96.000 C 296.640 95.908,296.832 95.833,297.010 95.833 C 297.188 95.833,297.333 95.721,297.333 95.583 C 297.333 95.446,297.446 95.333,297.583 95.333 C 297.721 95.333,297.833 95.258,297.833 95.167 C 297.833 95.075,297.953 95.000,298.098 95.000 C 298.393 95.000,298.986 94.366,298.994 94.042 C 298.998 93.927,299.075 93.833,299.167 93.833 C 299.258 93.833,299.333 93.753,299.333 93.655 C 299.333 93.557,299.446 93.364,299.583 93.226 C 299.721 93.089,299.833 92.794,299.833 92.571 C 299.833 92.349,299.908 92.167,300.000 92.167 C 300.092 92.167,300.167 91.988,300.167 91.770 C 300.167 91.552,300.279 91.281,300.417 91.167 C 300.576 91.034,300.667 90.666,300.667 90.146 C 300.667 89.699,300.742 89.333,300.833 89.333 C 300.931 89.333,301.000 88.750,301.000 87.917 C 301.000 87.083,301.069 86.500,301.167 86.500 C 301.274 86.500,301.333 84.750,301.333 81.583 C 301.333 78.417,301.274 76.667,301.167 76.667 C 301.069 76.667,301.000 76.083,301.000 75.250 C 301.000 74.417,300.931 73.833,300.833 73.833 C 300.742 73.833,300.667 73.418,300.667 72.911 C 300.667 72.246,300.597 71.963,300.417 71.894 C 300.255 71.831,300.167 71.573,300.167 71.159 C 300.167 70.807,300.092 70.473,300.000 70.417 C 299.908 70.360,299.833 70.139,299.833 69.925 C 299.833 69.711,299.721 69.492,299.583 69.440 C 299.446 69.387,299.333 69.191,299.333 69.005 C 299.333 68.819,299.258 68.667,299.167 68.667 C 299.075 68.667,299.000 68.479,299.000 68.250 C 299.000 68.021,298.925 67.833,298.833 67.833 C 298.742 67.833,298.667 67.694,298.667 67.523 C 298.667 67.353,298.479 67.073,298.250 66.900 C 298.021 66.728,297.833 66.453,297.833 66.289 C 297.833 66.124,297.721 65.946,297.583 65.894 C 297.446 65.841,297.333 65.689,297.333 65.556 C 297.333 65.423,297.258 65.360,297.167 65.417 C 297.075 65.473,297.000 65.435,297.000 65.331 C 297.000 65.092,296.580 64.667,296.345 64.667 C 296.247 64.667,296.167 64.586,296.167 64.488 C 296.167 64.294,295.756 63.833,295.583 63.833 C 295.524 63.833,295.372 63.740,295.244 63.625 C 294.692 63.130,294.504 63.000,294.340 63.000 C 294.245 63.000,294.167 62.925,294.167 62.833 C 294.167 62.742,293.979 62.667,293.750 62.667 C 293.491 62.667,293.333 62.572,293.333 62.417 C 293.333 62.278,293.185 62.167,293.000 62.167 C 292.817 62.167,292.667 62.092,292.667 62.000 C 292.667 61.908,292.525 61.833,292.352 61.833 C 292.180 61.833,291.823 61.721,291.561 61.584 C 291.298 61.447,290.877 61.335,290.625 61.334 C 290.373 61.334,290.167 61.258,290.167 61.167 C 290.167 61.074,289.722 61.000,289.167 61.000 C 288.611 61.000,288.167 60.926,288.167 60.833 C 288.167 60.733,287.468 60.667,286.405 60.667 C 285.061 60.667,284.584 60.607,284.393 60.417 C 284.175 60.198,282.348 60.167,269.988 60.167 L 255.833 60.167 255.833 99.167 M279.274 74.417 C 279.411 74.554,279.668 74.667,279.845 74.667 C 280.022 74.667,280.167 74.742,280.167 74.833 C 280.167 74.925,280.247 75.000,280.345 75.000 C 280.569 75.000,281.000 75.421,281.000 75.641 C 281.000 75.731,281.074 75.831,281.165 75.861 C 281.256 75.892,281.348 76.132,281.370 76.395 C 281.392 76.658,281.505 76.910,281.621 76.954 C 281.902 77.062,281.934 87.105,281.653 87.199 C 281.554 87.232,281.434 87.557,281.386 87.921 C 281.338 88.285,281.231 88.608,281.149 88.639 C 281.067 88.669,281.000 88.837,281.000 89.011 C 281.000 89.209,280.845 89.366,280.584 89.431 C 280.356 89.489,280.210 89.603,280.261 89.684 C 280.312 89.766,280.166 89.833,279.936 89.833 C 279.707 89.833,279.473 89.908,279.417 90.000 C 279.360 90.092,278.718 90.167,277.990 90.167 L 276.667 90.167 276.667 82.167 L 276.667 74.167 277.845 74.167 C 278.671 74.167,279.099 74.242,279.274 74.417 M92.333 76.237 C 92.333 76.410,93.018 77.022,93.151 76.969 C 93.223 76.940,93.069 76.742,92.808 76.529 C 92.547 76.316,92.333 76.185,92.333 76.237 M57.333 82.429 C 57.333 82.481,57.446 82.636,57.583 82.774 C 57.855 83.045,57.889 83.005,57.732 82.597 C 57.637 82.349,57.333 82.221,57.333 82.429 M59.000 85.605 C 59.000 85.725,59.672 86.333,59.805 86.333 C 59.852 86.333,59.715 86.146,59.500 85.917 C 59.094 85.485,59.000 85.426,59.000 85.605 M69.000 102.793 C 69.000 102.863,69.150 103.013,69.333 103.128 C 69.522 103.246,69.677 103.535,69.689 103.793 C 69.709 104.180,69.723 104.193,69.784 103.879 C 69.823 103.675,69.719 103.322,69.553 103.093 C 69.255 102.683,69.000 102.545,69.000 102.793 M41.611 103.611 C 41.457 103.765,41.472 104.167,41.631 104.167 C 41.703 104.167,41.774 104.017,41.788 103.833 C 41.814 103.475,41.785 103.438,41.611 103.611 M134.385 113.958 C 135.651 113.986,137.676 113.986,138.885 113.958 C 140.094 113.929,139.058 113.906,136.583 113.906 C 134.108 113.906,133.119 113.930,134.385 113.958 M41.500 124.490 C 41.500 124.679,41.575 124.833,41.667 124.833 C 41.758 124.833,41.833 124.725,41.833 124.593 C 41.833 124.461,41.758 124.307,41.667 124.250 C 41.575 124.193,41.500 124.301,41.500 124.490 M328.208 124.624 C 329.102 124.654,330.565 124.654,331.458 124.624 C 332.352 124.594,331.621 124.570,329.833 124.570 C 328.046 124.570,327.315 124.594,328.208 124.624 M43.167 127.399 C 43.167 127.527,43.290 127.678,43.440 127.736 C 43.656 127.819,43.674 127.793,43.525 127.613 C 43.421 127.488,43.386 127.337,43.446 127.276 C 43.506 127.216,43.468 127.167,43.361 127.167 C 43.254 127.167,43.167 127.271,43.167 127.399 M44.667 130.141 C 44.667 130.218,44.817 130.417,45.000 130.583 C 45.189 130.754,45.333 130.802,45.333 130.692 C 45.333 130.587,45.258 130.500,45.167 130.500 C 45.075 130.500,45.000 130.387,45.000 130.250 C 45.000 130.112,44.925 130.000,44.833 130.000 C 44.742 130.000,44.667 130.063,44.667 130.141 M47.705 135.333 C 47.901 135.646,48.167 135.783,48.167 135.571 C 48.167 135.447,47.719 135.000,47.594 135.000 C 47.541 135.000,47.591 135.150,47.705 135.333 M127.554 138.625 C 132.580 138.649,140.755 138.649,145.721 138.625 C 150.687 138.600,146.575 138.580,136.583 138.580 C 126.592 138.580,122.529 138.600,127.554 138.625 " stroke="none" fill="#8bc444" fill-rule="evenodd"></path><path id="path2" d="M105.707 52.378 C 105.617 52.491,105.413 52.865,105.253 53.208 C 105.093 53.552,104.896 53.833,104.814 53.833 C 104.733 53.833,104.667 54.021,104.667 54.250 C 104.667 54.528,104.574 54.667,104.389 54.667 C 104.236 54.667,104.155 54.711,104.209 54.764 C 104.262 54.818,104.144 55.049,103.945 55.278 C 103.746 55.508,103.581 55.782,103.579 55.889 C 103.577 55.996,103.516 56.177,103.444 56.292 C 103.372 56.406,103.352 56.500,103.399 56.500 C 103.446 56.500,103.300 56.698,103.075 56.941 C 102.851 57.184,102.667 57.470,102.667 57.579 C 102.667 57.687,102.479 57.951,102.250 58.167 C 102.021 58.382,101.833 58.718,101.833 58.912 C 101.833 59.107,101.740 59.360,101.625 59.475 C 101.510 59.590,101.417 59.739,101.417 59.807 C 101.417 59.875,101.157 60.162,100.839 60.446 C 100.339 60.893,100.291 60.999,100.484 61.231 C 100.675 61.460,100.666 61.500,100.427 61.500 C 100.273 61.500,100.188 61.567,100.238 61.648 C 100.289 61.729,100.218 61.888,100.081 62.002 C 99.945 62.115,99.833 62.423,99.833 62.687 C 99.833 62.951,99.769 63.167,99.689 63.167 C 99.424 63.167,98.653 64.056,98.734 64.269 C 98.778 64.384,98.669 64.664,98.491 64.891 C 98.312 65.117,98.167 65.422,98.167 65.568 C 98.167 65.714,98.092 65.833,98.000 65.833 C 97.908 65.833,97.833 65.950,97.833 66.093 C 97.833 66.236,97.758 66.307,97.667 66.250 C 97.575 66.193,97.500 66.231,97.500 66.333 C 97.500 66.436,97.425 66.473,97.333 66.417 C 97.160 66.309,97.109 66.492,97.135 67.125 C 97.145 67.349,97.053 67.500,96.909 67.500 C 96.743 67.500,96.667 67.684,96.667 68.083 C 96.667 68.404,96.586 68.667,96.488 68.667 C 96.310 68.667,95.718 69.181,95.786 69.276 C 95.865 69.387,95.239 70.331,95.083 70.335 C 94.992 70.337,95.029 70.411,95.167 70.500 C 95.333 70.608,95.347 70.662,95.208 70.664 C 95.094 70.666,95.000 70.820,95.000 71.007 C 95.000 71.194,94.850 71.508,94.667 71.705 C 94.483 71.902,94.333 72.002,94.333 71.928 C 94.333 71.524,93.899 72.234,93.864 72.695 C 93.841 72.996,93.712 73.305,93.578 73.380 C 93.443 73.455,93.333 73.580,93.333 73.657 C 93.333 73.735,93.112 74.035,92.842 74.324 C 92.567 74.618,92.391 74.957,92.443 75.092 C 92.494 75.225,92.453 75.333,92.351 75.333 C 92.032 75.333,92.151 76.077,92.506 76.299 C 92.693 76.415,92.809 76.571,92.764 76.644 C 92.622 76.875,92.791 76.878,106.417 76.941 L 119.750 77.002 119.752 76.209 C 119.754 75.681,119.870 75.250,120.101 74.917 C 120.540 74.284,120.983 73.574,122.496 71.083 C 123.165 69.983,123.878 68.821,124.082 68.500 C 124.455 67.912,126.354 64.846,126.853 64.026 C 127.001 63.782,127.516 62.946,127.997 62.167 C 128.479 61.387,129.322 60.000,129.871 59.083 C 130.420 58.167,131.048 57.135,131.268 56.792 C 131.487 56.448,131.841 55.885,132.054 55.542 C 132.268 55.198,132.648 54.605,132.899 54.225 C 133.240 53.708,133.342 53.371,133.303 52.892 L 133.250 52.250 119.560 52.211 C 108.868 52.181,105.834 52.217,105.707 52.378 M314.258 60.375 C 314.059 61.019,313.951 61.716,313.882 62.819 C 313.840 63.499,313.707 64.211,313.586 64.402 C 313.460 64.604,313.358 65.312,313.344 66.083 C 313.331 66.817,313.248 67.442,313.160 67.472 C 313.072 67.503,313.000 68.159,313.000 68.931 C 313.000 69.940,312.942 70.334,312.792 70.336 C 312.653 70.338,312.667 70.392,312.833 70.500 C 313.000 70.608,313.014 70.662,312.875 70.664 C 312.726 70.666,312.667 71.047,312.667 72.005 C 312.667 72.980,312.605 73.367,312.440 73.431 C 312.278 73.493,312.204 73.909,312.180 74.880 C 312.162 75.629,312.087 76.281,312.014 76.329 C 311.941 76.377,311.865 77.054,311.845 77.833 C 311.822 78.785,311.732 79.336,311.572 79.513 C 311.406 79.696,311.333 80.191,311.333 81.138 C 311.333 81.935,311.264 82.500,311.167 82.500 C 311.068 82.500,311.000 83.100,311.000 83.967 C 311.000 84.773,310.929 85.505,310.842 85.592 C 310.756 85.679,310.671 86.403,310.653 87.201 C 310.632 88.162,310.559 88.640,310.436 88.618 C 310.314 88.595,310.234 89.083,310.202 90.042 C 310.175 90.844,310.082 91.500,309.994 91.500 C 309.903 91.500,309.833 92.154,309.833 93.005 C 309.833 94.126,309.775 94.533,309.605 94.598 C 309.441 94.661,309.369 95.070,309.348 96.050 C 309.332 96.801,309.247 97.486,309.159 97.574 C 309.072 97.662,309.000 98.318,309.000 99.033 C 309.000 99.789,308.930 100.333,308.833 100.333 C 308.735 100.333,308.667 100.912,308.667 101.736 C 308.667 103.161,308.566 103.727,308.339 103.587 C 308.270 103.544,308.199 104.126,308.181 104.880 C 308.163 105.633,308.077 106.321,307.991 106.408 C 307.904 106.495,307.833 107.220,307.833 108.019 C 307.833 108.979,307.767 109.494,307.639 109.537 C 307.520 109.577,307.416 110.122,307.374 110.926 C 307.335 111.654,307.235 112.321,307.152 112.408 C 307.068 112.495,307.000 113.227,307.000 114.033 C 307.000 114.900,306.932 115.500,306.833 115.500 C 306.735 115.500,306.667 116.079,306.667 116.903 C 306.667 117.829,306.600 118.328,306.471 118.371 C 306.348 118.412,306.248 118.990,306.204 119.926 C 306.164 120.746,306.065 121.488,305.983 121.575 C 305.901 121.662,305.833 122.283,305.833 122.956 C 305.833 123.678,305.743 124.329,305.611 124.548 C 305.489 124.751,305.370 125.479,305.347 126.167 C 305.324 126.854,305.236 127.442,305.152 127.472 C 305.069 127.503,305.000 128.155,305.000 128.921 C 305.000 129.687,304.925 130.360,304.833 130.417 C 304.742 130.473,304.667 131.190,304.667 132.010 C 304.667 133.162,304.615 133.500,304.438 133.500 C 304.264 133.500,304.202 133.847,304.181 134.957 C 304.165 135.759,304.080 136.486,303.993 136.574 C 303.905 136.662,303.833 137.056,303.833 137.450 L 303.833 138.167 314.583 138.167 L 325.333 138.167 325.339 137.125 C 325.342 136.474,325.436 135.962,325.589 135.760 C 325.773 135.516,325.833 134.931,325.833 133.385 C 325.833 132.256,325.901 131.333,325.984 131.333 C 326.066 131.333,326.145 130.267,326.158 128.964 C 326.172 127.556,326.251 126.551,326.352 126.489 C 326.552 126.365,326.636 125.985,326.654 125.125 L 326.667 124.500 329.807 124.500 L 332.946 124.500 333.133 124.909 C 333.236 125.135,333.333 126.362,333.351 127.659 C 333.375 129.391,333.441 130.049,333.608 130.187 C 333.779 130.329,333.833 130.974,333.833 132.854 C 333.833 134.396,333.896 135.333,334.000 135.333 C 334.098 135.333,334.167 135.917,334.167 136.750 L 334.167 138.167 344.750 138.167 L 355.333 138.167 355.333 136.843 C 355.333 136.115,355.258 135.473,355.167 135.417 C 355.075 135.360,355.000 134.756,355.000 134.073 C 355.000 133.358,354.930 132.833,354.833 132.833 C 354.739 132.833,354.666 132.347,354.666 131.708 C 354.665 131.036,354.564 130.391,354.416 130.106 C 354.271 129.828,354.167 129.184,354.167 128.564 C 354.167 127.966,354.094 127.500,354.000 127.500 C 353.903 127.500,353.833 126.943,353.833 126.161 C 353.833 125.125,353.777 124.801,353.583 124.727 C 353.390 124.653,353.333 124.331,353.333 123.316 C 353.333 122.550,353.264 122.000,353.167 122.000 C 353.072 122.000,353.000 121.503,353.000 120.843 C 353.000 120.207,352.925 119.640,352.833 119.583 C 352.742 119.527,352.666 119.016,352.666 118.448 C 352.665 117.876,352.558 117.212,352.424 116.956 C 352.290 116.698,352.169 115.945,352.151 115.242 C 352.133 114.553,352.054 113.950,351.976 113.902 C 351.897 113.853,351.833 113.320,351.833 112.717 C 351.833 111.951,351.760 111.564,351.590 111.435 C 351.419 111.305,351.337 110.867,351.316 109.963 C 351.299 109.256,351.221 108.717,351.142 108.765 C 351.064 108.813,351.000 108.281,351.000 107.582 C 351.000 106.883,350.927 106.175,350.838 106.009 C 350.749 105.843,350.663 105.284,350.646 104.767 C 350.629 104.250,350.517 103.697,350.396 103.538 C 350.260 103.359,350.175 102.758,350.172 101.948 C 350.169 101.125,350.106 100.685,350.000 100.750 C 349.894 100.815,349.833 100.369,349.833 99.528 C 349.833 98.503,349.777 98.181,349.583 98.106 C 349.392 98.033,349.333 97.718,349.333 96.765 C 349.333 96.080,349.258 95.473,349.167 95.417 C 349.075 95.360,349.000 94.826,349.000 94.229 C 349.000 93.633,348.931 93.016,348.847 92.858 C 348.762 92.700,348.675 92.087,348.654 91.494 C 348.610 90.316,348.532 89.961,348.340 90.079 C 348.271 90.122,348.200 89.577,348.182 88.870 C 348.163 88.162,348.077 87.512,347.991 87.425 C 347.904 87.338,347.833 86.682,347.833 85.967 C 347.833 84.922,347.784 84.667,347.583 84.667 C 347.385 84.667,347.333 84.427,347.333 83.510 C 347.333 82.874,347.269 82.313,347.191 82.265 C 347.113 82.217,347.034 81.596,347.015 80.886 C 346.996 80.175,346.914 79.514,346.834 79.417 C 346.753 79.320,346.670 78.729,346.650 78.105 C 346.629 77.465,346.522 76.879,346.404 76.761 C 346.289 76.646,346.154 75.997,346.105 75.318 C 345.907 72.592,345.742 71.442,345.540 71.374 C 345.401 71.328,345.333 70.907,345.333 70.079 C 345.333 69.405,345.258 68.807,345.167 68.750 C 345.075 68.693,345.000 68.141,345.000 67.523 C 345.000 66.856,344.916 66.309,344.792 66.176 C 344.622 65.993,344.630 65.977,344.833 66.091 C 345.037 66.205,345.046 66.185,344.885 65.985 C 344.776 65.850,344.670 65.273,344.649 64.701 C 344.627 64.079,344.522 63.588,344.389 63.477 C 344.244 63.357,344.167 62.905,344.167 62.179 C 344.167 61.567,344.073 60.865,343.958 60.618 L 343.750 60.169 329.036 60.168 C 317.410 60.167,314.309 60.210,314.258 60.375 M330.004 83.755 C 330.085 83.852,330.162 84.852,330.177 85.978 C 330.197 87.553,330.257 88.045,330.435 88.113 C 330.615 88.183,330.667 88.657,330.667 90.258 C 330.667 91.449,330.737 92.357,330.833 92.417 C 330.930 92.476,331.000 93.380,331.000 94.560 C 331.000 95.682,331.071 96.671,331.157 96.758 C 331.244 96.845,331.333 97.690,331.356 98.634 C 331.383 99.801,331.463 100.389,331.605 100.469 C 331.751 100.550,331.823 101.165,331.843 102.501 C 331.860 103.555,331.935 104.456,332.011 104.504 C 332.087 104.553,332.162 105.365,332.179 106.309 C 332.201 107.592,332.266 108.049,332.437 108.114 C 332.596 108.175,332.667 108.505,332.667 109.184 L 332.667 110.167 329.417 110.167 C 326.724 110.167,326.167 110.126,326.167 109.931 C 326.167 109.801,326.245 109.668,326.341 109.636 C 326.570 109.560,326.641 108.936,326.655 106.865 C 326.662 105.917,326.733 105.188,326.814 105.238 C 326.895 105.288,326.973 104.565,326.988 103.631 C 327.002 102.697,327.077 101.855,327.154 101.758 C 327.231 101.662,327.306 100.833,327.321 99.917 C 327.341 98.677,327.410 98.203,327.590 98.065 C 327.770 97.928,327.833 97.507,327.833 96.450 C 327.833 95.663,327.898 94.980,327.977 94.931 C 328.056 94.882,328.136 94.185,328.153 93.383 C 328.173 92.467,328.259 91.878,328.384 91.798 C 328.494 91.729,328.518 91.671,328.438 91.669 C 328.358 91.668,328.363 91.573,328.449 91.458 C 328.535 91.344,328.626 90.650,328.651 89.917 C 328.677 89.184,328.755 88.546,328.825 88.500 C 328.895 88.454,328.968 87.779,328.987 87.000 C 329.006 86.221,329.091 85.512,329.177 85.425 C 329.263 85.338,329.333 84.697,329.333 84.000 C 329.333 82.592,329.703 81.764,329.804 82.946 C 329.834 83.294,329.924 83.658,330.004 83.755 M130.878 114.137 C 130.716 114.258,130.602 114.427,130.625 114.512 C 130.648 114.597,130.576 114.648,130.466 114.625 C 130.272 114.585,130.232 114.678,130.188 115.278 C 130.176 115.431,130.120 115.509,130.063 115.452 C 129.910 115.298,129.361 116.035,129.408 116.330 C 129.430 116.470,129.310 116.715,129.141 116.875 C 128.972 117.035,128.833 117.110,128.832 117.042 C 128.832 116.973,128.721 117.128,128.586 117.387 C 128.451 117.645,128.358 117.945,128.379 118.053 C 128.400 118.161,128.324 118.232,128.211 118.209 C 128.098 118.187,127.955 118.374,127.894 118.626 C 127.832 118.878,127.737 119.121,127.683 119.167 C 127.443 119.367,127.143 120.034,127.350 119.907 C 127.464 119.836,127.413 119.976,127.237 120.217 C 127.061 120.459,126.860 120.659,126.792 120.661 C 126.723 120.664,126.667 120.779,126.667 120.917 C 126.667 121.054,126.573 121.148,126.458 121.125 C 126.344 121.102,126.240 121.196,126.228 121.333 C 126.215 121.471,126.196 121.667,126.186 121.768 C 126.175 121.870,125.981 122.226,125.755 122.560 C 125.529 122.894,125.382 123.167,125.430 123.167 C 125.478 123.167,125.326 123.344,125.092 123.561 C 124.810 123.822,124.667 124.131,124.667 124.477 C 124.667 124.800,124.582 125.000,124.446 125.000 C 124.133 125.000,123.444 125.774,123.572 125.982 C 123.631 126.077,123.526 126.307,123.339 126.494 C 123.153 126.681,123.009 126.890,123.020 126.958 C 123.094 127.428,122.965 127.833,122.740 127.833 C 122.597 127.833,122.527 127.908,122.583 128.000 C 122.640 128.092,122.579 128.167,122.447 128.167 C 122.085 128.167,121.721 128.661,121.969 128.814 C 122.111 128.902,122.068 129.043,121.817 129.312 C 121.496 129.657,121.380 129.934,121.346 130.439 C 121.339 130.543,121.183 130.667,121.000 130.715 C 120.804 130.766,120.667 130.942,120.667 131.143 C 120.667 131.330,120.535 131.560,120.375 131.653 C 120.215 131.747,120.144 131.825,120.218 131.828 C 120.292 131.831,120.235 132.000,120.093 132.204 C 119.950 132.407,119.833 132.707,119.833 132.870 C 119.833 133.033,119.758 133.167,119.667 133.167 C 119.575 133.167,119.500 133.279,119.500 133.417 C 119.500 133.554,119.406 133.648,119.292 133.625 C 119.177 133.602,119.102 133.677,119.125 133.792 C 119.148 133.906,119.066 134.000,118.942 134.000 C 118.807 134.000,118.712 134.199,118.703 134.501 C 118.695 134.776,118.571 135.119,118.428 135.263 C 118.284 135.406,118.167 135.585,118.167 135.659 C 118.167 135.734,118.017 135.834,117.833 135.882 C 117.589 135.946,117.500 136.109,117.500 136.494 C 117.500 136.802,117.431 136.977,117.333 136.917 C 117.234 136.855,117.167 137.056,117.167 137.412 C 117.167 137.789,117.259 138.046,117.416 138.106 C 117.553 138.159,117.623 138.269,117.573 138.351 C 117.522 138.433,117.616 138.500,117.782 138.501 C 117.948 138.501,126.445 138.503,136.665 138.504 L 155.246 138.507 155.706 138.073 C 155.960 137.834,156.167 137.504,156.167 137.339 C 156.167 137.174,156.322 136.998,156.512 136.948 C 156.703 136.899,156.899 136.703,156.948 136.512 C 156.998 136.322,157.124 136.166,157.228 136.164 C 157.332 136.163,157.304 136.089,157.167 136.000 C 157.000 135.892,156.986 135.838,157.125 135.836 C 157.240 135.834,157.333 135.718,157.333 135.578 C 157.333 135.438,157.446 135.280,157.583 135.227 C 157.721 135.174,157.833 135.006,157.833 134.852 C 157.833 134.699,157.991 134.463,158.183 134.328 C 158.375 134.194,158.636 134.008,158.763 133.917 C 158.889 133.825,159.010 133.511,159.031 133.220 C 159.052 132.928,159.129 132.726,159.201 132.771 C 159.274 132.816,159.333 132.781,159.333 132.694 C 159.333 132.607,159.520 132.358,159.747 132.142 C 159.975 131.927,160.162 131.662,160.164 131.556 C 160.165 131.449,160.237 131.336,160.324 131.306 C 160.410 131.275,160.521 131.026,160.570 130.751 C 160.619 130.477,160.736 130.227,160.830 130.196 C 160.923 130.164,161.000 130.028,161.000 129.893 C 161.000 129.758,161.075 129.693,161.167 129.750 C 161.258 129.807,161.333 129.736,161.333 129.593 C 161.333 129.450,161.450 129.333,161.593 129.333 C 161.736 129.333,161.812 129.267,161.762 129.186 C 161.711 129.104,161.782 128.945,161.919 128.832 C 162.055 128.719,162.167 128.512,162.167 128.374 C 162.167 128.235,162.358 127.944,162.593 127.727 C 162.827 127.510,162.977 127.265,162.927 127.183 C 162.877 127.102,162.947 126.992,163.084 126.939 C 163.221 126.887,163.333 126.701,163.333 126.526 C 163.333 126.351,163.446 126.114,163.583 126.000 C 163.721 125.886,163.833 125.724,163.833 125.639 C 163.833 125.485,164.005 125.246,164.542 124.655 C 164.702 124.478,164.833 124.268,164.833 124.189 C 164.833 124.110,165.057 123.791,165.331 123.481 C 165.604 123.171,165.829 122.795,165.831 122.645 C 165.834 122.316,166.233 121.955,166.404 122.126 C 166.472 122.194,166.513 122.175,166.496 122.083 C 166.444 121.810,166.694 121.167,166.853 121.167 C 166.934 121.167,167.000 121.060,167.000 120.929 C 167.000 120.798,167.190 120.542,167.421 120.359 C 167.653 120.177,167.822 119.953,167.796 119.862 C 167.736 119.644,168.119 119.073,168.790 118.382 C 169.087 118.076,169.322 117.771,169.312 117.704 C 169.252 117.310,169.378 117.060,169.708 116.915 C 170.025 116.775,170.083 116.621,170.083 115.917 L 170.083 115.083 156.472 115.000 L 142.860 114.917 142.390 114.500 C 142.131 114.271,141.881 114.046,141.835 114.000 C 141.620 113.789,131.169 113.920,130.878 114.137 " stroke="none" fill="#d3dc25" fill-rule="evenodd"></path><path id="path3" d="M86.500 26.167 C 86.271 26.346,86.165 26.494,86.266 26.496 C 86.366 26.498,86.584 26.350,86.750 26.167 C 87.130 25.747,87.037 25.747,86.500 26.167 M120.571 29.333 C 120.722 29.563,120.889 29.881,120.942 30.042 C 121.075 30.441,121.333 30.410,121.333 29.995 C 121.333 29.809,121.202 29.607,121.042 29.547 C 120.881 29.487,120.648 29.320,120.523 29.177 C 120.399 29.034,120.420 29.104,120.571 29.333 M82.867 32.367 C 82.637 32.596,82.593 33.065,82.813 32.929 C 82.939 32.851,83.198 32.167,83.101 32.167 C 83.082 32.167,82.977 32.257,82.867 32.367 M81.269 35.077 C 80.939 35.582,80.922 35.772,81.232 35.515 C 81.434 35.347,81.719 34.667,81.587 34.667 C 81.560 34.667,81.417 34.852,81.269 35.077 M124.185 35.379 C 124.462 35.910,124.500 35.930,124.500 35.546 C 124.500 35.357,124.386 35.158,124.246 35.105 C 124.033 35.023,124.023 35.067,124.185 35.379 M80.099 37.083 C 79.949 37.313,79.865 37.500,79.913 37.500 C 80.024 37.500,80.667 36.861,80.667 36.750 C 80.667 36.523,80.341 36.714,80.099 37.083 M78.929 39.095 C 78.785 39.239,78.671 39.483,78.677 39.637 C 78.685 39.844,78.725 39.823,78.833 39.556 C 78.913 39.357,79.115 39.116,79.281 39.019 C 79.447 38.923,79.495 38.841,79.387 38.838 C 79.279 38.836,79.073 38.951,78.929 39.095 M77.154 42.042 C 76.977 42.637,77.023 42.892,77.252 42.593 C 77.540 42.217,77.570 42.000,77.333 42.000 C 77.242 42.000,77.161 42.019,77.154 42.042 M76.240 44.136 C 76.054 44.291,75.796 44.567,75.666 44.750 C 75.531 44.940,75.676 44.869,76.006 44.583 C 76.322 44.308,76.613 44.065,76.652 44.042 C 76.691 44.019,76.690 43.968,76.650 43.928 C 76.611 43.889,76.426 43.982,76.240 44.136 M74.792 46.429 C 74.723 46.499,74.667 46.708,74.667 46.894 C 74.667 47.140,74.717 47.183,74.849 47.051 C 74.949 46.951,75.005 46.742,74.974 46.586 C 74.942 46.431,74.860 46.360,74.792 46.429 M129.836 46.588 C 129.840 47.132,130.114 47.453,130.362 47.205 C 130.529 47.038,130.497 46.923,130.202 46.628 C 129.849 46.275,129.833 46.273,129.836 46.588 M129.238 47.080 C 128.956 47.293,128.951 47.323,129.198 47.328 C 129.354 47.331,129.530 47.253,129.590 47.156 C 129.772 46.862,129.580 46.821,129.238 47.080 M110.221 47.292 C 113.688 47.317,119.313 47.317,122.721 47.292 C 126.128 47.266,123.292 47.246,116.417 47.246 C 109.542 47.246,106.753 47.266,110.221 47.292 M73.944 47.611 C 73.772 47.784,73.814 48.333,74.000 48.333 C 74.092 48.333,74.167 48.264,74.167 48.179 C 74.167 48.093,74.285 47.906,74.429 47.762 C 74.667 47.524,74.662 47.500,74.373 47.500 C 74.198 47.500,74.006 47.550,73.944 47.611 M101.521 48.557 C 101.395 48.709,101.356 48.833,101.433 48.833 C 101.511 48.833,101.420 48.942,101.231 49.074 C 101.029 49.215,100.901 49.473,100.919 49.699 C 100.938 49.930,100.735 50.326,100.409 50.690 C 100.111 51.024,99.817 51.455,99.756 51.648 C 99.694 51.842,99.574 52.000,99.489 52.000 C 99.403 52.000,99.333 52.112,99.333 52.250 C 99.333 52.387,99.390 52.498,99.458 52.495 C 99.646 52.487,100.214 51.658,100.106 51.550 C 100.054 51.498,100.090 51.310,100.186 51.130 C 100.282 50.951,100.404 50.848,100.457 50.901 C 100.588 51.033,101.016 50.660,100.917 50.500 C 100.873 50.429,100.949 50.278,101.085 50.165 C 101.222 50.052,101.333 49.843,101.333 49.701 C 101.333 49.559,101.452 49.311,101.598 49.151 C 101.743 48.990,101.837 48.728,101.806 48.570 C 101.754 48.302,101.733 48.301,101.521 48.557 M72.395 50.368 C 72.327 50.479,72.251 50.753,72.227 50.978 C 72.203 51.203,72.087 51.446,71.968 51.520 C 71.794 51.627,71.797 51.694,71.984 51.868 C 72.157 52.029,72.186 52.031,72.098 51.875 C 72.033 51.760,72.060 51.667,72.157 51.667 C 72.254 51.667,72.333 51.517,72.333 51.333 C 72.333 51.150,72.390 50.999,72.458 50.999 C 72.527 50.998,72.670 50.810,72.776 50.582 C 72.983 50.135,72.654 49.950,72.395 50.368 M99.000 52.657 C 99.000 52.846,99.075 53.000,99.167 53.000 C 99.258 53.000,99.333 52.892,99.333 52.760 C 99.333 52.628,99.258 52.473,99.167 52.417 C 99.075 52.360,99.000 52.468,99.000 52.657 M70.833 53.083 C 70.711 53.312,70.656 53.545,70.711 53.600 C 70.861 53.750,71.187 53.501,71.076 53.322 C 71.023 53.236,71.060 53.167,71.157 53.167 C 71.254 53.167,71.333 53.054,71.333 52.917 C 71.333 52.535,71.082 52.618,70.833 53.083 M98.579 53.715 C 98.394 54.009,98.094 54.550,97.913 54.917 C 97.732 55.283,97.508 55.638,97.417 55.706 C 97.307 55.787,97.308 55.829,97.421 55.831 C 97.648 55.834,98.218 55.162,98.094 55.038 C 98.041 54.985,98.161 54.767,98.361 54.554 C 98.561 54.341,98.663 54.167,98.587 54.167 C 98.511 54.167,98.580 54.021,98.741 53.843 C 98.902 53.665,99.008 53.443,98.975 53.350 C 98.943 53.256,98.765 53.421,98.579 53.715 M70.257 54.125 C 70.207 54.254,70.167 54.504,70.167 54.680 C 70.167 54.856,70.092 55.000,70.000 55.000 C 69.908 55.000,69.833 55.085,69.833 55.189 C 69.833 55.293,69.665 55.538,69.458 55.733 C 69.030 56.138,68.854 56.743,69.197 56.630 C 69.318 56.590,69.441 56.394,69.470 56.195 C 69.499 55.996,69.576 55.833,69.640 55.833 C 69.705 55.833,69.905 55.552,70.086 55.208 C 70.266 54.865,70.457 54.546,70.511 54.500 C 70.744 54.299,70.787 53.889,70.575 53.889 C 70.450 53.889,70.307 53.995,70.257 54.125 M96.367 57.367 C 96.257 57.477,96.167 57.697,96.167 57.857 C 96.167 58.016,96.092 58.193,96.001 58.249 C 95.726 58.419,95.463 59.000,95.661 59.000 C 95.756 59.000,95.833 58.892,95.833 58.759 C 95.833 58.627,95.978 58.418,96.155 58.294 C 96.332 58.170,96.527 57.866,96.590 57.618 C 96.714 57.120,96.667 57.067,96.367 57.367 M68.333 58.000 C 68.333 58.092,68.216 58.167,68.073 58.167 C 67.931 58.167,67.863 58.247,67.924 58.344 C 67.984 58.442,67.902 58.618,67.741 58.736 C 67.580 58.854,67.428 59.130,67.405 59.350 C 67.381 59.570,67.355 59.811,67.347 59.885 C 67.340 59.959,67.258 59.973,67.167 59.917 C 67.075 59.860,67.000 59.931,67.000 60.073 C 67.000 60.216,66.925 60.333,66.833 60.333 C 66.742 60.333,66.667 60.456,66.667 60.606 C 66.667 60.756,66.479 61.052,66.250 61.265 C 66.021 61.477,65.833 61.821,65.833 62.029 L 65.833 62.408 66.108 61.995 C 66.259 61.769,66.472 61.508,66.581 61.417 C 66.829 61.209,67.832 59.319,67.833 59.059 C 67.833 58.954,68.020 58.692,68.247 58.476 C 68.685 58.060,68.775 57.833,68.500 57.833 C 68.408 57.833,68.333 57.908,68.333 58.000 M94.622 60.376 C 94.578 60.490,94.551 60.621,94.562 60.667 C 94.573 60.712,94.395 61.011,94.166 61.331 C 93.598 62.125,93.347 62.625,93.460 62.738 C 93.684 62.962,93.833 62.799,93.833 62.333 C 93.833 62.058,93.903 61.833,93.988 61.833 C 94.279 61.833,94.667 61.310,94.667 60.919 C 94.667 60.704,94.757 60.498,94.867 60.461 C 95.008 60.414,95.013 60.361,94.884 60.281 C 94.784 60.219,94.666 60.262,94.622 60.376 M65.147 63.125 C 65.136 63.194,65.136 63.306,65.147 63.375 C 65.158 63.444,65.054 63.500,64.917 63.500 C 64.775 63.500,64.667 63.649,64.667 63.845 C 64.667 64.035,64.554 64.303,64.417 64.440 C 64.279 64.578,64.167 64.803,64.167 64.940 C 64.167 65.163,64.194 65.163,64.417 64.940 C 64.554 64.803,64.667 64.636,64.667 64.569 C 64.667 64.503,64.854 64.202,65.083 63.902 C 65.313 63.601,65.500 63.276,65.500 63.178 C 65.500 62.978,65.178 62.930,65.147 63.125 M92.860 63.352 C 92.739 63.546,92.610 63.859,92.574 64.048 C 92.538 64.237,92.439 64.435,92.356 64.488 C 92.272 64.540,92.068 64.883,91.903 65.250 C 91.737 65.617,91.570 65.980,91.531 66.058 C 91.493 66.136,91.620 66.114,91.814 66.010 C 92.015 65.903,92.167 65.658,92.167 65.442 C 92.167 65.234,92.308 64.911,92.481 64.726 C 92.653 64.540,92.847 64.151,92.911 63.861 C 92.974 63.571,93.096 63.333,93.180 63.333 C 93.264 63.333,93.333 63.258,93.333 63.167 C 93.333 62.886,93.092 62.981,92.860 63.352 M63.701 65.569 C 63.049 66.570,62.630 67.476,62.715 67.702 C 62.761 67.822,62.910 67.654,63.055 67.320 C 63.198 66.992,63.431 66.627,63.574 66.508 C 63.717 66.389,63.833 66.214,63.833 66.118 C 63.833 66.022,63.946 65.818,64.084 65.666 C 64.307 65.419,64.307 65.389,64.077 65.389 C 63.935 65.389,63.766 65.470,63.701 65.569 M91.000 66.750 C 91.000 66.887,91.075 67.000,91.167 67.000 C 91.258 67.000,91.333 66.887,91.333 66.750 C 91.333 66.612,91.258 66.500,91.167 66.500 C 91.075 66.500,91.000 66.612,91.000 66.750 M90.611 67.278 C 90.419 67.470,90.490 67.667,90.750 67.667 C 90.888 67.667,91.000 67.554,91.000 67.417 C 91.000 67.156,90.803 67.086,90.611 67.278 M62.273 68.213 C 62.148 68.692,62.225 68.730,62.564 68.355 C 62.803 68.091,62.810 68.027,62.607 67.949 C 62.455 67.891,62.332 67.988,62.273 68.213 M89.768 68.764 C 89.705 68.926,89.743 69.002,89.864 68.962 C 90.114 68.879,90.251 68.500,90.032 68.500 C 89.942 68.500,89.823 68.619,89.768 68.764 M61.898 68.997 C 61.421 69.189,61.238 69.660,61.686 69.543 C 61.866 69.496,61.974 69.418,61.926 69.370 C 61.878 69.322,61.969 69.184,62.128 69.063 C 62.459 68.812,62.399 68.794,61.898 68.997 M89.531 69.369 C 89.286 69.614,89.276 69.833,89.510 69.833 C 89.607 69.833,89.644 69.765,89.592 69.681 C 89.540 69.597,89.592 69.495,89.707 69.454 C 89.822 69.413,89.874 69.332,89.822 69.276 C 89.770 69.219,89.639 69.261,89.531 69.369 M61.111 69.944 C 61.050 70.006,61.000 70.193,61.000 70.361 C 61.000 70.529,60.925 70.667,60.833 70.667 C 60.742 70.667,60.667 70.835,60.667 71.042 C 60.668 71.397,60.690 71.390,61.078 70.917 C 61.598 70.282,61.627 69.428,61.111 69.944 M88.542 71.107 C 88.335 71.330,88.167 71.577,88.167 71.657 C 88.167 71.819,88.826 71.688,88.846 71.522 C 88.853 71.464,88.890 71.248,88.928 71.042 C 89.011 70.595,89.016 70.594,88.542 71.107 M60.167 72.083 C 60.051 72.223,60.033 72.333,60.126 72.333 C 60.218 72.333,60.386 72.221,60.500 72.083 C 60.616 71.944,60.634 71.833,60.541 71.833 C 60.449 71.833,60.281 71.946,60.167 72.083 M59.246 73.463 C 59.051 73.601,58.983 74.500,59.168 74.500 C 59.235 74.500,59.328 74.834,59.374 75.243 C 59.439 75.818,59.595 76.120,60.062 76.574 C 60.395 76.897,60.667 77.306,60.667 77.483 C 60.667 77.660,60.736 77.831,60.821 77.861 C 60.906 77.892,60.999 78.029,61.029 78.167 C 61.059 78.304,61.153 78.467,61.238 78.528 C 61.323 78.590,61.413 78.776,61.438 78.942 C 61.462 79.108,61.561 79.270,61.658 79.303 C 61.754 79.335,61.833 79.458,61.833 79.577 C 61.833 79.695,61.945 79.885,62.081 79.998 C 62.218 80.112,62.293 80.263,62.249 80.335 C 62.205 80.406,62.281 80.508,62.418 80.561 C 62.555 80.613,62.667 80.800,62.667 80.976 C 62.667 81.366,63.080 82.198,63.210 82.068 C 63.261 82.017,63.356 82.144,63.422 82.350 C 63.487 82.556,63.682 82.876,63.854 83.060 C 64.026 83.245,64.167 83.560,64.167 83.761 C 64.167 83.962,64.279 84.219,64.417 84.333 C 64.554 84.447,64.667 84.644,64.667 84.770 C 64.667 84.897,64.742 85.000,64.833 85.000 C 64.925 85.000,65.000 85.099,65.000 85.221 C 65.000 85.342,65.188 85.618,65.417 85.833 C 65.646 86.049,65.833 86.367,65.833 86.540 C 65.833 86.961,66.127 87.509,66.571 87.917 C 66.934 88.250,67.500 89.306,67.500 89.650 C 67.500 89.751,67.575 89.833,67.667 89.833 C 67.758 89.833,67.833 89.949,67.833 90.091 C 67.833 90.233,68.021 90.523,68.250 90.735 C 68.479 90.948,68.667 91.238,68.667 91.380 C 68.667 91.522,68.745 91.665,68.841 91.697 C 68.936 91.729,69.037 91.979,69.064 92.252 C 69.095 92.569,69.244 92.810,69.473 92.915 C 69.671 93.005,69.833 93.211,69.833 93.373 C 69.833 93.534,69.900 93.667,69.982 93.667 C 70.064 93.667,70.178 93.854,70.235 94.083 C 70.293 94.313,70.413 94.500,70.503 94.500 C 70.593 94.500,70.667 94.691,70.667 94.925 C 70.667 95.185,70.893 95.583,71.250 95.950 C 71.571 96.281,71.836 96.671,71.839 96.817 C 71.842 96.964,71.949 97.222,72.077 97.391 C 72.205 97.561,72.274 97.795,72.228 97.913 C 72.183 98.030,72.338 98.278,72.573 98.462 C 72.808 98.647,73.000 98.918,73.000 99.066 C 73.000 99.213,73.075 99.333,73.167 99.333 C 73.258 99.333,73.333 99.440,73.333 99.571 C 73.333 99.702,73.443 99.919,73.577 100.053 C 73.711 100.187,73.857 100.499,73.902 100.746 C 73.979 101.175,74.559 101.833,74.859 101.833 C 74.936 101.833,75.000 102.064,75.000 102.345 C 75.000 102.627,75.112 102.970,75.250 103.107 C 75.387 103.245,75.500 103.504,75.500 103.684 C 75.500 103.863,75.762 104.241,76.083 104.522 C 76.404 104.804,76.667 105.140,76.667 105.270 C 76.667 105.399,76.734 105.635,76.815 105.794 C 76.897 105.953,77.046 106.290,77.145 106.542 C 77.245 106.794,77.440 107.000,77.580 107.000 C 77.720 107.000,77.833 107.145,77.833 107.323 C 77.833 107.501,77.908 107.693,78.000 107.750 C 78.092 107.807,78.167 107.990,78.167 108.157 C 78.167 108.330,78.325 108.502,78.534 108.557 C 79.122 108.711,93.227 108.680,93.469 108.524 C 93.727 108.359,94.167 107.555,94.167 107.249 C 94.167 107.132,94.279 106.992,94.417 106.940 C 94.554 106.887,94.667 106.696,94.667 106.516 C 94.667 106.336,94.816 106.142,95.000 106.083 C 95.210 106.017,95.333 105.831,95.333 105.581 C 95.333 105.362,95.521 104.982,95.750 104.734 C 95.979 104.487,96.167 104.088,96.167 103.849 C 96.167 103.556,96.290 103.358,96.542 103.248 C 96.773 103.146,96.937 102.908,96.969 102.625 C 96.998 102.373,97.092 102.167,97.178 102.167 C 97.263 102.167,97.333 102.071,97.333 101.953 C 97.333 101.836,97.483 101.632,97.667 101.500 C 97.850 101.368,98.000 101.124,98.000 100.958 C 98.000 100.792,98.106 100.616,98.235 100.566 C 98.364 100.516,98.518 100.275,98.578 100.030 C 98.780 99.191,99.072 98.687,99.458 98.511 C 100.119 98.210,99.974 96.362,99.226 95.545 C 98.918 95.209,98.667 94.836,98.667 94.716 C 98.667 94.385,97.779 92.804,97.542 92.712 C 97.427 92.667,97.333 92.522,97.333 92.389 C 97.333 92.256,97.258 92.193,97.167 92.250 C 97.069 92.311,97.000 92.128,97.000 91.807 C 97.000 91.449,96.869 91.144,96.621 90.922 C 96.167 90.516,95.606 89.669,95.788 89.662 C 95.859 89.659,95.785 89.580,95.625 89.487 C 95.465 89.393,95.333 89.170,95.333 88.992 C 95.333 88.813,95.258 88.667,95.167 88.667 C 95.075 88.667,95.000 88.579,95.000 88.471 C 95.000 88.111,94.419 87.009,94.226 87.004 C 94.010 86.999,93.833 86.621,93.833 86.162 C 93.833 85.992,93.699 85.754,93.535 85.634 C 93.371 85.515,92.980 84.892,92.665 84.250 C 92.064 83.022,91.806 82.667,91.512 82.667 C 91.414 82.667,91.333 82.439,91.333 82.160 C 91.333 81.881,91.190 81.499,91.016 81.312 C 90.841 81.125,90.650 80.715,90.592 80.402 C 90.513 79.985,90.398 79.833,90.159 79.833 C 89.927 79.833,89.833 79.719,89.833 79.437 C 89.833 79.219,89.721 78.947,89.583 78.833 C 89.446 78.719,89.333 78.523,89.333 78.396 C 89.333 78.270,89.263 78.167,89.177 78.167 C 89.091 78.167,88.998 77.923,88.969 77.625 C 88.929 77.210,88.829 77.071,88.542 77.030 C 88.270 76.992,88.167 76.865,88.167 76.572 C 88.167 76.349,88.092 76.167,88.000 76.167 C 87.908 76.167,87.833 76.017,87.833 75.833 C 87.833 75.648,87.722 75.500,87.583 75.500 C 87.418 75.500,87.333 75.334,87.333 75.008 C 87.333 74.716,87.215 74.448,87.042 74.347 C 86.764 74.185,86.764 74.177,87.042 74.172 C 87.202 74.169,87.333 74.054,87.333 73.917 C 87.333 73.598,87.099 73.596,86.836 73.913 C 86.724 74.048,86.471 74.129,86.274 74.092 C 86.078 74.055,79.978 74.019,72.720 74.012 C 59.714 74.000,59.522 73.995,59.470 73.671 C 59.440 73.485,59.343 73.394,59.246 73.463 M115.261 81.685 C 115.312 81.766,115.274 81.833,115.177 81.833 C 115.079 81.833,115.000 81.958,115.000 82.111 C 115.000 82.264,114.956 82.345,114.903 82.292 C 114.740 82.129,114.167 82.811,114.167 83.167 C 114.167 83.350,114.092 83.500,114.000 83.500 C 113.908 83.500,113.842 83.556,113.853 83.625 C 113.911 83.990,113.814 84.341,113.679 84.257 C 113.594 84.205,113.470 84.332,113.405 84.539 C 113.339 84.747,113.146 85.015,112.976 85.134 C 112.806 85.254,112.667 85.527,112.667 85.742 C 112.667 85.956,112.554 86.174,112.417 86.227 C 112.279 86.280,112.167 86.475,112.167 86.661 C 112.167 86.848,112.092 87.000,112.000 87.000 C 111.908 87.000,111.833 87.170,111.833 87.377 C 111.833 87.608,111.688 87.818,111.458 87.919 C 111.252 88.009,111.074 88.177,111.063 88.292 C 111.051 88.406,111.032 88.654,111.021 88.843 C 111.009 89.032,110.925 89.140,110.833 89.083 C 110.742 89.027,110.667 89.065,110.667 89.169 C 110.667 89.272,110.554 89.470,110.417 89.607 C 110.279 89.745,110.167 90.005,110.167 90.186 C 110.167 90.366,110.009 90.680,109.817 90.882 C 109.474 91.244,109.162 91.845,109.067 92.330 C 109.040 92.466,108.939 92.604,108.842 92.636 C 108.746 92.668,108.667 92.826,108.667 92.987 C 108.667 93.148,108.479 93.365,108.250 93.470 C 107.908 93.626,107.833 93.777,107.833 94.318 C 107.833 94.874,107.775 94.985,107.458 95.030 C 107.193 95.068,107.077 95.203,107.063 95.493 C 107.051 95.718,106.958 95.931,106.854 95.965 C 106.751 96.000,106.667 96.172,106.667 96.347 C 106.667 96.523,106.554 96.667,106.417 96.667 C 106.261 96.667,106.167 96.824,106.167 97.083 C 106.167 97.313,106.092 97.500,106.000 97.500 C 105.908 97.500,105.833 97.642,105.833 97.816 C 105.833 97.989,105.740 98.167,105.625 98.211 C 105.391 98.301,104.667 99.584,104.667 99.909 C 104.667 100.025,104.479 100.261,104.250 100.433 C 104.021 100.605,103.833 100.834,103.833 100.942 C 103.833 101.050,103.759 101.164,103.668 101.194 C 103.577 101.225,103.486 101.451,103.466 101.697 C 103.446 101.942,103.351 102.130,103.256 102.113 C 103.161 102.097,103.061 102.277,103.033 102.514 C 103.006 102.750,102.761 103.187,102.490 103.485 C 102.218 103.782,102.046 104.106,102.107 104.205 C 102.173 104.312,102.140 104.337,102.026 104.266 C 101.912 104.195,101.833 104.253,101.833 104.407 C 101.833 104.550,101.759 104.667,101.669 104.667 C 101.578 104.667,101.456 104.969,101.396 105.339 C 101.337 105.709,101.253 105.975,101.208 105.930 C 101.118 105.841,100.667 106.247,100.667 106.417 C 100.667 106.476,100.554 106.636,100.417 106.774 C 100.279 106.911,100.167 107.206,100.167 107.429 C 100.167 107.651,100.092 107.833,100.000 107.833 C 99.908 107.833,99.833 108.063,99.833 108.343 C 99.833 108.641,99.764 108.810,99.667 108.750 C 99.575 108.693,99.500 108.709,99.500 108.784 C 99.500 108.859,99.331 108.995,99.125 109.085 C 98.843 109.209,98.737 109.415,98.696 109.917 C 98.666 110.283,98.535 110.643,98.404 110.717 C 98.274 110.790,98.167 110.996,98.167 111.175 C 98.167 111.354,98.087 111.500,97.990 111.500 C 97.893 111.500,97.860 111.575,97.917 111.667 C 97.973 111.758,97.940 111.833,97.843 111.833 C 97.249 111.833,97.000 112.101,97.000 112.737 C 97.000 113.028,96.919 113.348,96.819 113.448 C 96.689 113.578,96.713 113.772,96.902 114.139 C 97.048 114.420,97.167 114.787,97.167 114.955 C 97.167 115.122,97.283 115.425,97.425 115.627 C 97.567 115.830,98.437 117.328,99.359 118.956 C 100.281 120.584,101.169 122.142,101.331 122.417 C 101.772 123.166,104.198 127.367,104.411 127.750 C 104.513 127.933,104.855 128.519,105.173 129.052 C 105.915 130.298,105.934 130.331,106.897 132.003 C 107.345 132.781,108.117 134.110,108.613 134.958 C 109.696 136.810,110.346 138.177,110.231 138.364 C 110.185 138.439,110.225 138.500,110.320 138.500 C 110.416 138.500,110.541 138.313,110.598 138.084 C 110.655 137.856,110.769 137.710,110.851 137.761 C 110.933 137.812,111.000 137.736,111.000 137.593 C 111.000 137.450,111.075 137.333,111.167 137.333 C 111.258 137.333,111.333 137.076,111.333 136.762 C 111.333 136.296,111.403 136.180,111.708 136.137 C 111.977 136.098,112.098 135.953,112.136 135.622 C 112.165 135.369,112.259 135.204,112.345 135.257 C 112.480 135.341,112.577 134.991,112.520 134.625 C 112.509 134.556,112.612 134.500,112.750 134.500 C 112.888 134.500,112.991 134.444,112.980 134.375 C 112.883 133.760,113.030 133.333,113.339 133.333 C 113.525 133.333,113.712 133.221,113.755 133.083 C 113.798 132.946,113.883 132.702,113.944 132.542 C 114.083 132.174,114.120 132.044,114.146 131.823 C 114.157 131.726,114.229 131.685,114.305 131.732 C 114.381 131.779,114.574 131.521,114.733 131.159 C 114.893 130.796,115.094 130.500,115.179 130.500 C 115.264 130.500,115.333 130.237,115.333 129.917 C 115.333 129.591,115.417 129.333,115.523 129.333 C 115.779 129.333,116.155 128.819,116.161 128.458 C 116.164 128.298,116.242 128.167,116.333 128.167 C 116.425 128.167,116.481 128.073,116.458 127.958 C 116.435 127.844,116.516 127.771,116.637 127.796 C 116.759 127.821,116.814 127.770,116.760 127.682 C 116.706 127.595,116.737 127.476,116.831 127.418 C 116.924 127.361,117.000 127.179,117.000 127.015 C 117.000 126.850,117.188 126.513,117.417 126.266 C 117.646 126.018,117.833 125.697,117.833 125.552 C 117.833 125.407,118.021 125.114,118.250 124.902 C 118.479 124.690,118.667 124.362,118.667 124.175 C 118.667 123.987,118.742 123.833,118.833 123.833 C 118.925 123.833,119.000 123.721,119.000 123.583 C 119.000 123.446,119.075 123.333,119.167 123.333 C 119.258 123.333,119.333 123.221,119.333 123.083 C 119.333 122.946,119.416 122.833,119.518 122.833 C 119.624 122.833,119.656 122.711,119.592 122.547 C 119.532 122.389,119.533 122.311,119.594 122.372 C 119.801 122.579,120.167 122.029,120.167 121.512 C 120.167 121.230,120.242 121.000,120.333 121.000 C 120.425 121.000,120.500 120.888,120.500 120.750 C 120.500 120.612,120.585 120.500,120.690 120.500 C 120.940 120.500,121.321 119.988,121.328 119.643 C 121.331 119.492,121.446 119.326,121.583 119.273 C 121.721 119.220,121.833 119.025,121.833 118.839 C 121.833 118.652,121.908 118.500,122.000 118.500 C 122.092 118.500,122.167 118.382,122.167 118.238 C 122.167 117.928,122.582 117.471,122.730 117.619 C 122.787 117.676,122.833 117.569,122.833 117.382 C 122.833 117.194,122.946 116.947,123.083 116.833 C 123.221 116.719,123.333 116.441,123.333 116.216 C 123.333 115.966,123.561 115.584,123.917 115.239 C 124.237 114.927,124.500 114.526,124.500 114.346 C 124.500 114.167,124.576 113.973,124.669 113.915 C 124.763 113.857,124.799 113.746,124.750 113.667 C 124.701 113.588,124.737 113.476,124.831 113.418 C 124.924 113.361,125.000 113.168,125.000 112.990 C 125.000 112.812,125.063 112.667,125.141 112.667 C 125.459 112.667,126.167 111.879,126.167 111.524 C 126.167 111.315,126.279 111.030,126.417 110.893 C 126.554 110.755,126.667 110.497,126.667 110.319 C 126.667 110.141,126.894 109.790,127.171 109.539 C 127.448 109.289,127.710 108.896,127.753 108.667 C 127.795 108.438,127.906 108.226,127.998 108.195 C 128.091 108.164,128.167 107.997,128.167 107.822 C 128.167 107.648,128.429 107.236,128.750 106.905 C 129.146 106.498,129.333 106.149,129.333 105.819 C 129.333 105.498,129.418 105.333,129.583 105.333 C 130.147 105.333,129.896 103.899,129.208 103.184 C 128.865 102.827,128.559 102.405,128.530 102.248 C 128.500 102.090,128.332 101.805,128.155 101.616 C 127.978 101.426,127.833 101.092,127.833 100.874 C 127.833 100.290,127.534 99.833,127.151 99.833 C 126.965 99.833,126.860 99.758,126.917 99.667 C 126.973 99.575,126.940 99.500,126.843 99.500 C 126.746 99.500,126.667 99.330,126.667 99.122 C 126.667 98.914,126.479 98.468,126.250 98.131 C 126.021 97.794,125.833 97.473,125.833 97.418 C 125.833 97.362,125.646 97.144,125.417 96.931 C 125.185 96.717,125.000 96.359,125.000 96.126 C 125.000 95.896,124.888 95.614,124.750 95.500 C 124.612 95.386,124.500 95.128,124.500 94.926 C 124.500 94.568,123.827 93.833,123.499 93.833 C 123.408 93.833,123.333 93.571,123.333 93.250 C 123.333 92.929,123.275 92.667,123.203 92.667 C 123.131 92.667,122.928 92.423,122.753 92.125 C 122.577 91.827,122.298 91.438,122.133 91.260 C 121.968 91.083,121.833 90.848,121.833 90.739 C 121.833 90.630,121.721 90.447,121.583 90.333 C 121.446 90.219,121.333 89.985,121.333 89.813 C 121.333 89.641,121.249 89.500,121.146 89.500 C 121.015 89.500,121.019 89.428,121.161 89.257 C 121.382 88.991,121.263 88.667,120.945 88.667 C 120.755 88.667,120.083 87.605,120.083 87.305 C 120.083 87.229,120.030 87.185,119.966 87.208 C 119.786 87.272,119.345 86.622,119.339 86.286 C 119.336 86.123,119.220 85.946,119.080 85.892 C 118.941 85.839,118.841 85.710,118.857 85.606 C 118.911 85.264,118.519 84.515,118.173 84.298 C 117.986 84.182,117.833 83.920,117.833 83.717 C 117.833 83.515,117.652 83.167,117.430 82.945 C 117.208 82.723,117.001 82.326,116.971 82.062 C 116.919 81.606,116.875 81.582,116.043 81.560 C 115.562 81.546,115.210 81.603,115.261 81.685 " stroke="none" fill="#f45c2b" fill-rule="evenodd"></path><path id="path4" d="M87.111 25.111 C 87.050 25.172,87.000 25.388,87.000 25.591 C 87.000 25.793,86.883 26.056,86.740 26.175 C 86.597 26.294,86.344 26.659,86.177 26.987 C 86.010 27.315,85.711 27.906,85.512 28.300 C 85.314 28.694,85.042 29.058,84.909 29.109 C 84.776 29.161,84.667 29.382,84.667 29.601 C 84.667 29.821,84.610 30.000,84.542 30.001 C 84.378 30.002,83.833 30.963,83.833 31.251 C 83.833 31.375,83.665 31.614,83.458 31.784 C 83.252 31.953,83.062 32.202,83.037 32.337 C 82.960 32.744,82.598 33.408,82.375 33.550 C 82.261 33.623,82.167 33.827,82.167 34.002 C 82.167 34.177,82.029 34.455,81.860 34.619 C 81.691 34.782,81.503 35.029,81.442 35.167 C 81.380 35.304,81.186 35.642,81.010 35.917 C 80.835 36.192,80.686 36.514,80.679 36.633 C 80.672 36.752,80.479 37.023,80.250 37.235 C 80.021 37.448,79.833 37.773,79.833 37.957 C 79.833 38.142,79.719 38.387,79.579 38.503 C 79.440 38.619,79.364 38.753,79.412 38.800 C 79.459 38.848,79.357 38.985,79.185 39.106 C 79.012 39.227,78.822 39.524,78.761 39.766 C 78.700 40.009,78.541 40.316,78.408 40.449 C 78.275 40.582,78.167 40.821,78.167 40.980 C 78.167 41.140,78.035 41.418,77.875 41.598 C 77.715 41.778,77.440 42.205,77.265 42.546 C 77.091 42.887,76.884 43.167,76.807 43.167 C 76.730 43.167,76.667 43.356,76.667 43.588 C 76.667 43.862,76.461 44.190,76.083 44.522 C 75.738 44.826,75.500 45.189,75.500 45.414 C 75.500 45.622,75.387 45.886,75.250 46.000 C 75.112 46.114,75.000 46.349,75.000 46.523 C 75.000 46.937,74.732 47.415,74.035 48.244 C 73.917 48.385,73.879 48.502,73.952 48.505 C 74.024 48.508,73.971 48.602,73.833 48.714 C 73.695 48.825,73.360 49.367,73.088 49.917 C 72.816 50.467,72.535 50.942,72.464 50.972 C 72.392 51.003,72.333 51.164,72.333 51.329 C 72.333 51.495,72.221 51.674,72.083 51.727 C 71.946 51.780,71.833 51.967,71.833 52.144 C 71.833 52.320,71.721 52.508,71.583 52.560 C 71.446 52.613,71.333 52.771,71.333 52.911 C 71.333 53.052,71.254 53.167,71.157 53.167 C 71.060 53.167,71.027 53.242,71.084 53.335 C 71.141 53.427,71.086 53.541,70.962 53.589 C 70.838 53.636,70.725 53.835,70.710 54.031 C 70.695 54.227,70.623 54.431,70.548 54.485 C 70.474 54.539,70.266 54.865,70.086 55.208 C 69.905 55.552,69.700 55.833,69.629 55.833 C 69.558 55.833,69.500 55.980,69.500 56.158 C 69.500 56.337,69.381 56.550,69.235 56.632 C 69.089 56.713,68.977 56.829,68.985 56.890 C 69.028 57.203,68.987 57.345,68.875 57.276 C 68.806 57.233,68.739 57.385,68.725 57.613 C 68.702 57.993,68.123 58.734,67.969 58.580 C 67.933 58.544,67.893 58.642,67.881 58.799 C 67.836 59.377,67.501 60.020,67.308 59.901 C 67.190 59.828,67.160 59.855,67.231 59.969 C 67.374 60.201,66.976 60.996,66.413 61.603 C 66.181 61.853,65.948 62.232,65.895 62.445 C 65.841 62.659,65.730 62.833,65.649 62.833 C 65.567 62.833,65.500 62.951,65.500 63.094 C 65.500 63.238,65.313 63.601,65.083 63.902 C 64.854 64.202,64.667 64.503,64.667 64.569 C 64.667 64.636,64.553 64.804,64.415 64.942 C 64.277 65.080,64.201 65.254,64.247 65.328 C 64.292 65.402,64.218 65.555,64.081 65.668 C 63.945 65.781,63.833 65.968,63.833 66.083 C 63.833 66.198,63.717 66.389,63.574 66.508 C 63.328 66.712,62.808 67.763,62.882 67.906 C 62.901 67.943,62.747 68.154,62.540 68.374 C 62.333 68.594,62.213 68.824,62.272 68.883 C 62.332 68.943,62.258 69.039,62.108 69.097 C 61.958 69.154,61.877 69.269,61.927 69.351 C 61.978 69.433,61.903 69.500,61.760 69.500 C 61.592 69.500,61.500 69.651,61.500 69.928 C 61.500 70.163,61.320 70.594,61.100 70.886 C 60.880 71.178,60.674 71.565,60.641 71.746 C 60.607 71.927,60.394 72.169,60.165 72.285 C 59.937 72.401,59.825 72.499,59.917 72.503 C 60.008 72.507,59.970 72.602,59.831 72.714 C 59.692 72.825,59.555 73.160,59.527 73.458 L 59.475 74.000 72.696 74.013 C 79.967 74.020,86.059 74.052,86.233 74.085 C 86.675 74.168,87.322 73.656,87.328 73.218 C 87.331 73.017,87.500 72.735,87.704 72.593 C 87.907 72.450,88.005 72.333,87.920 72.333 C 87.836 72.333,87.857 72.243,87.967 72.133 C 88.077 72.023,88.167 71.798,88.167 71.633 C 88.167 71.468,88.242 71.324,88.333 71.313 C 88.425 71.301,88.594 71.279,88.708 71.263 C 88.823 71.248,88.896 71.140,88.872 71.024 C 88.821 70.785,89.284 69.709,89.599 69.333 C 89.805 69.089,89.833 69.008,89.833 68.667 C 89.833 68.575,89.948 68.500,90.089 68.500 C 90.369 68.500,90.669 67.871,90.544 67.543 C 90.501 67.429,90.586 67.290,90.733 67.234 C 90.880 67.177,91.000 66.989,91.000 66.816 C 91.000 66.642,91.063 66.500,91.139 66.500 C 91.216 66.500,91.494 66.069,91.757 65.542 C 92.020 65.015,92.297 64.540,92.372 64.488 C 92.447 64.435,92.538 64.237,92.574 64.048 C 92.667 63.566,93.044 63.000,93.272 63.000 C 93.378 63.000,93.509 62.884,93.564 62.741 C 93.618 62.599,93.592 62.527,93.505 62.580 C 93.309 62.701,93.631 62.078,94.107 61.414 C 94.303 61.141,94.467 60.879,94.471 60.833 C 94.495 60.573,94.717 60.178,94.809 60.233 C 94.980 60.337,95.246 59.951,95.290 59.538 C 95.338 59.092,95.820 58.305,95.983 58.406 C 96.045 58.445,96.112 58.283,96.131 58.047 C 96.171 57.568,96.468 57.127,96.668 57.251 C 96.792 57.328,97.084 56.550,97.027 56.292 C 97.012 56.223,97.075 56.167,97.167 56.167 C 97.258 56.167,97.333 56.054,97.333 55.917 C 97.333 55.779,97.400 55.667,97.482 55.667 C 97.564 55.667,97.678 55.476,97.737 55.243 C 97.795 55.010,97.900 54.855,97.970 54.898 C 98.040 54.942,98.108 54.835,98.121 54.662 C 98.134 54.489,98.337 54.065,98.572 53.719 C 98.808 53.372,99.000 52.915,99.000 52.701 C 99.000 52.485,99.074 52.359,99.167 52.417 C 99.258 52.473,99.333 52.403,99.333 52.260 C 99.333 52.117,99.403 52.000,99.489 52.000 C 99.574 52.000,99.692 51.849,99.751 51.664 C 99.809 51.480,99.939 51.379,100.038 51.440 C 100.150 51.509,100.170 51.473,100.090 51.345 C 100.012 51.218,100.155 50.934,100.460 50.611 C 100.762 50.291,100.944 49.932,100.923 49.699 C 100.902 49.470,101.027 49.217,101.231 49.074 C 101.420 48.942,101.511 48.833,101.433 48.833 C 101.356 48.833,101.392 48.713,101.514 48.567 C 101.636 48.420,101.752 48.184,101.773 48.042 C 101.894 47.222,101.379 47.253,115.673 47.204 C 125.189 47.172,129.120 47.105,129.417 46.969 C 129.896 46.751,130.035 45.227,129.615 44.804 C 129.495 44.682,129.289 44.340,129.157 44.042 C 129.026 43.744,128.824 43.500,128.709 43.500 C 128.594 43.500,128.500 43.387,128.500 43.250 C 128.500 43.112,128.425 43.000,128.333 43.000 C 128.242 43.000,128.167 42.813,128.167 42.583 C 128.167 42.354,128.095 42.167,128.008 42.167 C 127.920 42.167,127.800 41.906,127.740 41.588 C 127.674 41.236,127.443 40.860,127.151 40.630 C 126.886 40.421,126.669 40.186,126.668 40.109 C 126.664 39.681,125.467 37.680,125.125 37.528 C 125.056 37.497,125.000 37.291,125.000 37.069 C 125.000 36.848,124.935 36.667,124.856 36.667 C 124.777 36.667,124.583 36.330,124.426 35.918 C 124.269 35.507,123.959 35.027,123.737 34.853 C 123.515 34.678,123.333 34.451,123.333 34.349 C 123.333 34.246,123.269 34.032,123.190 33.873 C 122.722 32.924,122.398 32.379,122.133 32.094 C 121.968 31.916,121.833 31.640,121.833 31.480 C 121.833 31.321,121.721 31.078,121.583 30.940 C 121.446 30.803,121.333 30.610,121.333 30.512 C 121.333 30.414,121.258 30.333,121.167 30.333 C 121.075 30.333,121.000 30.253,121.000 30.156 C 121.000 30.058,120.813 29.732,120.583 29.431 C 120.354 29.131,120.167 28.732,120.167 28.544 C 120.167 28.356,120.056 28.160,119.921 28.108 C 119.785 28.056,119.508 27.654,119.305 27.215 C 119.102 26.776,118.863 26.367,118.774 26.307 C 118.632 26.210,118.561 25.909,118.514 25.208 C 118.499 24.982,87.336 24.886,87.111 25.111 M173.434 60.431 C 173.378 60.578,173.333 78.128,173.334 99.432 L 173.336 138.167 183.752 138.167 L 194.167 138.167 194.125 99.208 L 194.083 60.250 183.810 60.207 C 174.521 60.168,173.527 60.190,173.434 60.431 " stroke="none" fill="#fcac44" fill-rule="evenodd"></path></g></svg>